<?xml version="1.0" encoding="UTF-8" standalone="no"?>
<!-- Generator: Adobe Illustrator 13.0.0, SVG Export Plug-In . SVG Version: 6.00 Build 14948)  -->

<svg
   xmlns:dc="http://purl.org/dc/elements/1.1/"
   xmlns:cc="http://creativecommons.org/ns#"
   xmlns:rdf="http://www.w3.org/1999/02/22-rdf-syntax-ns#"
   xmlns:svg="http://www.w3.org/2000/svg"
   xmlns="http://www.w3.org/2000/svg"
   xmlns:xlink="http://www.w3.org/1999/xlink"
   xmlns:sodipodi="http://sodipodi.sourceforge.net/DTD/sodipodi-0.dtd"
   xmlns:inkscape="http://www.inkscape.org/namespaces/inkscape"
   version="1.1"
   id="Layer_1"
   inkscape:version="0.47pre2 r22153"
   sodipodi:docname="IC_cn2_03.svg"
   x="0px"
   y="0px"
   width="47.969px"
   height="26.652px"
   viewBox="0 0 47.969 26.652"
   enable-background="new 0 0 47.969 26.652"
   xml:space="preserve"><metadata
   id="metadata3646"><rdf:RDF><cc:Work
       rdf:about=""><dc:format>image/svg+xml</dc:format><dc:type
         rdf:resource="http://purl.org/dc/dcmitype/StillImage" /><dc:title></dc:title></cc:Work></rdf:RDF></metadata>
<defs
   id="defs3640"><linearGradient
   inkscape:collect="always"
   id="linearGradient4180"><stop
     style="stop-color:#000000;stop-opacity:1;"
     offset="0"
     id="stop4182" /><stop
     style="stop-color:#000000;stop-opacity:0;"
     offset="1"
     id="stop4184" /></linearGradient>
	
	
		<inkscape:perspective
   id="perspective249"
   inkscape:vp_z="829.93597 : 314.784 : 1"
   inkscape:vp_y="0 : 1000 : 0"
   inkscape:vp_x="0 : 314.784 : 1"
   sodipodi:type="inkscape:persp3d"
   inkscape:persp3d-origin="414.96799 : 209.856 : 1">
		</inkscape:perspective>
<inkscape:perspective
   id="perspective3656"
   inkscape:persp3d-origin="0.5 : 0.33333333 : 1"
   inkscape:vp_z="1 : 0.5 : 1"
   inkscape:vp_y="0 : 1000 : 0"
   inkscape:vp_x="0 : 0.5 : 1"
   sodipodi:type="inkscape:persp3d" /><linearGradient
   inkscape:collect="always"
   xlink:href="#linearGradient4180"
   id="linearGradient4186"
   x1="104.70569"
   y1="-5.3722358"
   x2="104.70569"
   y2="-18.698236"
   gradientUnits="userSpaceOnUse"
   gradientTransform="translate(-80.721192,32.024236)" /></defs>
<sodipodi:namedview
   id="namedview243"
   inkscape:window-maximized="1"
   inkscape:cy="40.268411"
   inkscape:cx="92.612984"
   inkscape:zoom="2.9988818"
   showgrid="false"
   pagecolor="#ffffff"
   guidetolerance="10"
   gridtolerance="10"
   objecttolerance="10"
   borderopacity="1"
   bordercolor="#666666"
   inkscape:current-layer="Layer_1"
   inkscape:window-y="-4"
   inkscape:window-x="-4"
   inkscape:window-height="964"
   inkscape:window-width="1280"
   inkscape:pageshadow="2"
   inkscape:pageopacity="0">
	</sodipodi:namedview>
<path
   d="M10.676,18.656h26.656v2.664H10.676V18.656z M5.328,11.992h3.998v4H5.328V11.992z M11.992,11.992h3.995v4h-3.995V11.992z   M18.654,11.992h3.998v4h-3.998V11.992z M25.316,11.992h3.998v4h-3.998V11.992z M31.98,11.992h3.995v4H31.98V11.992z M38.64,11.992  h4v4h-4V11.992z M5.328,5.331h3.998v3.996H5.328V5.331z M11.992,5.331h3.995v3.996h-3.995V5.331z M18.654,5.331h3.998v3.996h-3.998  V5.331z M25.316,5.331h3.998v3.996h-3.998V5.331z M31.98,5.331h3.995v3.996H31.98V5.331z M38.64,5.331h4v3.996h-4V5.331z M0,26.652  h47.969V0H0V26.652z M45.304,23.984H2.663V2.664h42.641V23.984z"
   id="bgColor00"
   inkscape:label="#iconcolor"
   style="fill:#ff0000" />
<path
   d="M 10.675999,18.656 H 37.331998 V 21.32 H 10.675999 V 18.656 z M 5.328,11.992 h 3.997999 v 4 H 5.328 v -4 z m 6.663999,0 h 3.995 v 4 h -3.995 v -4 z m 6.662,0 h 3.997999 v 4 h -3.997999 v -4 z m 6.661999,0 h 3.998 v 4 h -3.998 v -4 z m 6.664,0 h 3.995 v 4 h -3.995 v -4 z m 6.66,0 h 4 v 4 h -4 v -4 z M 5.328,5.3309998 h 3.997999 v 3.996 H 5.328 v -3.996 z m 6.663999,0 h 3.995 v 3.996 h -3.995 v -3.996 z m 6.662,0 h 3.997999 v 3.996 h -3.997999 v -3.996 z m 6.661999,0 h 3.998 v 3.996 h -3.998 v -3.996 z m 6.664,0 h 3.995 v 3.996 h -3.995 v -3.996 z m 6.66,0 h 4 v 3.996 h -4 v -3.996 z M 0,26.652 H 47.968998 V -2.0000001e-7 H 0 V 26.652 z M 45.303998,23.984 H 2.663 V 2.6639998 H 45.303998 V 23.984 z"
   id="path3644-7"
   inkscape:label="#iconcolor"
   style="opacity:0.45;fill:url(#linearGradient4186);fill-opacity:1" /></svg>