<?xml version="1.0" encoding="utf-8"?>
<!-- Generator: Adobe Illustrator 15.0.0, SVG Export Plug-In . SVG Version: 6.00 Build 0)  -->
<!DOCTYPE svg PUBLIC "-//W3C//DTD SVG 1.1//EN" "http://www.w3.org/Graphics/SVG/1.1/DTD/svg11.dtd">
<svg version="1.1" id="Layer_1" xmlns:svg="http://www.w3.org/2000/svg"
	 xmlns="http://www.w3.org/2000/svg" xmlns:xlink="http://www.w3.org/1999/xlink" x="0px" y="0px" width="85.35px" height="85.35px"
	 viewBox="0 0 85.35 85.35" enable-background="new 0 0 85.35 85.35" xml:space="preserve">
<path id="bgColor00" fill="#D85B07" d="M85.307,75.012c0,5.711-4.6,10.34-10.271,10.34H10.274c-5.674,0-10.271-4.629-10.271-10.34
	V10.384c0-5.711,4.599-10.342,10.271-10.342H75.04c5.672,0,10.271,4.63,10.271,10.342v64.629L85.307,75.012z"/>
<linearGradient id="path3921_1_" gradientUnits="userSpaceOnUse" x1="238.8" y1="809.5745" x2="154.1333" y2="809.5745" gradientTransform="matrix(1 0 0 1 -153.4902 -766.9199)">
	<stop  offset="0.0061" style="stop-color:#000000;stop-opacity:0.65"/>
	<stop  offset="0.0364" style="stop-color:#000000;stop-opacity:0"/>
	<stop  offset="0.9758" style="stop-color:#FFFFFF;stop-opacity:0"/>
	<stop  offset="1" style="stop-color:#FFFFFF;stop-opacity:0.65"/>
</linearGradient>
<path id="path3921" opacity="0.6" fill="url(#path3921_1_)" enable-background="new    " d="M85.307,74.969
	c0,5.711-4.601,10.34-10.271,10.34H10.274c-5.674,0-10.271-4.629-10.271-10.34V10.342C0.002,4.631,4.602,0,10.274,0H75.04
	c5.672,0,10.27,4.629,10.27,10.342v64.629L85.307,74.969z"/>
<linearGradient id="path3910_1_" gradientUnits="userSpaceOnUse" x1="353.637" y1="-529.3035" x2="353.637" y2="-445.8023" gradientTransform="matrix(1 0 0 -1 -310.9805 -444.189)">
	<stop  offset="0.0061" style="stop-color:#000000;stop-opacity:0.65"/>
	<stop  offset="0.0485" style="stop-color:#000000;stop-opacity:0"/>
	<stop  offset="0.9758" style="stop-color:#FFFFFF;stop-opacity:0"/>
	<stop  offset="1" style="stop-color:#FFFFFF;stop-opacity:0.65"/>
</linearGradient>
<path id="path3910" opacity="0.6" fill="url(#path3910_1_)" enable-background="new    " d="M85.307,74.969
	c0,5.711-4.601,10.34-10.271,10.34H10.274c-5.674,0-10.271-4.629-10.271-10.34V10.342C0.002,4.631,4.602,0,10.274,0H75.04
	c5.672,0,10.27,4.629,10.27,10.342v64.629L85.307,74.969z"/>
</svg>
