<?xml version="1.0" encoding="utf-8"?>
<!-- Generator: Adobe Illustrator 15.0.0, SVG Export Plug-In . SVG Version: 6.00 Build 0)  -->
<!DOCTYPE svg PUBLIC "-//W3C//DTD SVG 1.1//EN" "http://www.w3.org/Graphics/SVG/1.1/DTD/svg11.dtd">
<svg version="1.1" id="Layer_1" xmlns:svg="http://www.w3.org/2000/svg"
	 xmlns="http://www.w3.org/2000/svg" xmlns:xlink="http://www.w3.org/1999/xlink" x="0px" y="0px" width="135.035px"
	 height="135.031px" viewBox="0 0 135.035 135.031" enable-background="new 0 0 135.035 135.031" xml:space="preserve">
<path id="bgColor00" fill="#FFFFFF" d="M125.477,22.669c0,0,0.063-3.816-1.744-5.785L109.934,3.335l0.004,0.055
	c0.004,0.004,0.004,0.008,0.006,0.011c-2.252-2.104-5.262-3.4-8.588-3.4H33.678c-3.322,0-6.336,1.297-8.584,3.399
	c0-0.003,0.004-0.007,0.008-0.011V3.335L11.307,16.884c-1.81,1.97-1.75,5.785-1.75,5.785l-0.004,88.455l0.004-0.004v3.683
	c0.219,5.905,5.035,10.646,10.949,10.646h94.021c5.912,0,10.729-4.74,10.951-10.646v-3.683v0.004L125.477,22.669L125.477,22.669z"/>
<linearGradient id="path2900_1_" gradientUnits="userSpaceOnUse" x1="722.2705" y1="-472.915" x2="722.2705" y2="-576.9611" gradientTransform="matrix(1 0 0 -1 -654.9102 -470.9434)">
	<stop  offset="0.0818" style="stop-color:#FFFFFF;stop-opacity:0"/>
	<stop  offset="0.5163" style="stop-color:#888888;stop-opacity:0.1041"/>
	<stop  offset="1" style="stop-color:#000000;stop-opacity:0.22"/>
</linearGradient>
<path id="path2900" fill="url(#path2900_1_)" d="M101.695,2.406H34.018c-6.127,0-10.699,4.233-10.699,10.191v67.678
	c0,6.957,3.938,8.354,10.892,8.354h67.68c2.145,0,9.512-2.508,9.512-8.354V12.596C111.4,7.58,108.654,2.406,101.695,2.406z
	 M108.21,36.097c-11.44,5.282-25.717,8.45-41.247,8.45c-14.552,0-28.009-2.789-39.066-7.491V15.39c0-2.515,0.977-4.879,2.758-6.657
	c1.775-1.776,4.136-2.757,6.65-2.757h61.489c2.519,0,4.884,0.979,6.658,2.756c1.778,1.776,2.758,4.143,2.758,6.656V36.097
	L108.21,36.097z"/>
<path id="path2907" opacity="0.2" fill="#FFFFFF" enable-background="new    " d="M98.79,5.976H37.301
	c-2.516,0-4.875,0.979-6.65,2.757c-1.781,1.778-2.758,4.144-2.758,6.657v21.666c11.059,4.702,24.516,7.491,39.066,7.491
	c15.529,0,29.807-3.168,41.247-8.45V15.388c0-2.515-0.979-4.88-2.758-6.656C103.674,6.956,101.307,5.976,98.79,5.976z"/>
<path id="path2909" opacity="0.18" fill="#020202" enable-background="new    " d="M101.355-0.001H33.678
	c-6.955,0-12.597,5.641-12.597,12.6v67.678c0,6.959,5.642,12.597,12.597,12.597h67.677c6.959,0,12.601-5.64,12.601-12.597V12.598
	C113.955,5.639,108.314-0.001,101.355-0.001z M111.719,80.275c0,5.716-4.648,10.36-10.363,10.36H33.678
	c-5.713,0-10.358-4.646-10.358-10.36V12.598c0-2.768,1.079-5.371,3.032-7.328c1.955-1.956,4.558-3.033,7.326-3.033h67.677
	c2.771,0,5.371,1.077,7.328,3.033c1.957,1.957,3.034,4.562,3.034,7.328L111.719,80.275L111.719,80.275L111.719,80.275z"/>
<linearGradient id="path2916_1_" gradientUnits="userSpaceOnUse" x1="681.8779" y1="-528.1719" x2="666.1436" y2="-528.1719" gradientTransform="matrix(1 0 0 -1 -654.9102 -470.9434)">
	<stop  offset="0" style="stop-color:#000000;stop-opacity:0"/>
	<stop  offset="1" style="stop-color:#000000"/>
</linearGradient>
<path id="path2916" opacity="0.66" fill="url(#path2916_1_)" enable-background="new    " d="M21.082,80.275V12.598
	c0-3.643,1.553-6.908,4.02-9.209V3.335L11.307,16.884c-1.809,1.97-1.75,5.785-1.75,5.785l-0.004,88.455l12.379-26.332
	C21.389,83.391,21.082,81.872,21.082,80.275z"/>
<linearGradient id="path2923_1_" gradientUnits="userSpaceOnUse" x1="1207.3818" y1="1151.6885" x2="1188.9749" y2="1152.0032" gradientTransform="matrix(-1 0 0 1 1311.3438 -1094.6934)">
	<stop  offset="0" style="stop-color:#000000;stop-opacity:0"/>
	<stop  offset="1" style="stop-color:#000000"/>
</linearGradient>
<path id="path2923" opacity="0.66" fill="url(#path2923_1_)" enable-background="new    " d="M113.955,12.598v67.679
	c0,1.596-0.309,3.113-0.848,4.516l12.373,26.33l-0.004-88.453c0,0,0.063-3.816-1.744-5.784L109.934,3.335l0.004,0.055
	C112.404,5.689,113.955,8.956,113.955,12.598z"/>
<linearGradient id="path2930_1_" gradientUnits="userSpaceOnUse" x1="1064.3223" y1="1187.8691" x2="1064.3223" y2="1231.2537" gradientTransform="matrix(1 0 0 1 -996.8047 -1094.6934)">
	<stop  offset="0" style="stop-color:#000000;stop-opacity:0.18"/>
	<stop  offset="1" style="stop-color:#000000"/>
</linearGradient>
<path id="path2930" fill="url(#path2930_1_)" d="M113.107,84.792c-1.822,4.726-6.385,8.08-11.752,8.08H33.678
	c-5.363,0-9.933-3.354-11.746-8.08L9.557,111.118v3.685c0.219,5.905,5.035,10.646,10.948,10.646h94.021
	c5.914,0,10.729-4.738,10.953-10.646v-3.685L113.107,84.792z"/>
<path id="path2932" opacity="0.51" fill="#FFFFFF" enable-background="new    " d="M111.543,81.292
	c-1.256,4.396-5.264,7.433-10.188,7.433H33.678c-4.813,0-9.875-1.644-10.242-6.525l-1.453,2.459
	c1.85,4.363,6.383,8.215,11.695,8.215h67.677c5.73,0,10.562-4.479,12.082-9.248L111.543,81.292z"/>
<path id="path2934" opacity="0.2" fill="#4D4D4D" enable-background="new    " d="M114.527,5.536h-2.283l5.461,5.361
	c0.645,0.522,1.246,1.119,1.775,1.649c0.27,0.275,0.516,0.621,0.734,0.992c0.454,0.709,0.758,1.523,0.939,2.311
	c0.259,0.947,0.398,1.914,0.398,2.728v95.801c0,3.929-3.154,7.125-7.031,7.125h-94.02c-3.877,0-7.027-3.196-7.027-7.125V18.577
	c0-1.912,0.734-4.68,2.076-6.029c0.562-0.564,1.203-1.198,1.902-1.745l5.354-5.267h-2.308c-8.241,0-14.916,6.721-14.916,15.014
	v93.828c0,8.291,6.675,15.011,14.916,15.011h94.021c8.238,0,14.92-6.72,14.92-15.011V20.55
	C129.445,12.257,122.766,5.536,114.527,5.536z"/>
<path id="path2936" opacity="0.4" enable-background="new    " d="M114.527,5.538h-2.445l8.082,7.918l-0.061,0.004
	c0.262,0.211,0.535,0.401,0.771,0.646c1.709,1.719,2.647,4.006,2.647,6.444v93.83c0,5.017-4.037,9.095-9,9.095h-94.02
	c-4.963,0-9.004-4.078-9.004-9.095V20.55c0-2.393,0.916-4.633,2.565-6.34l-0.041-0.01l8.812-8.662h-2.332
	c-8.242,0-14.916,6.719-14.916,15.012v93.83c0,8.291,6.674,15.009,14.916,15.009h94.021c8.238,0,14.918-6.718,14.918-15.009V20.55
	C129.445,12.257,122.766,5.538,114.527,5.538z"/>
<path id="path2938" opacity="0.9" fill="#333333" enable-background="new    " d="M114.527,5.538h-2.438l4.12,4.108
	c2.285,0.353,4.397,1.39,6.063,3.064c2.086,2.094,3.225,4.875,3.225,7.838v93.83c0,6.103-4.918,11.065-10.971,11.065H20.506
	c-6.049,0-10.971-4.965-10.971-11.065V20.55c0-2.963,1.141-5.744,3.221-7.838c1.629-1.639,3.684-2.674,5.91-3.051l4.188-4.123
	h-2.348c-8.242,0-14.916,6.719-14.916,15.012v93.83c0,8.291,6.674,15.009,14.916,15.009h94.021c8.238,0,14.918-6.718,14.918-15.009
	V20.55C129.445,12.257,122.766,5.538,114.527,5.538z"/>
<path id="path2940" opacity="0.5" fill="#FFFFFF" enable-background="new    " d="M114.871,128.566H20.846
	c-8.242,0-14.914-6.717-14.914-15.006v0.782c0,8.288,6.672,15.009,14.914,15.009h94.025c8.234,0,14.912-6.721,14.912-15.009v-0.782
	C129.783,121.854,123.105,128.566,114.871,128.566z"/>
<g id="g2942">
	<path id="path2944" opacity="0.9" fill="#333333" enable-background="new    " d="M9.557,22.669c0,0-0.06-3.816,1.75-5.785
		l3.723-3.659c0.168-0.247,0.346-0.48,0.543-0.677c0.563-0.565,1.211-1.199,1.902-1.75l1.141-1.12
		c-2.197,0.387-4.227,1.409-5.842,3.034c-2.076,2.093-3.221,4.873-3.221,7.838L9.557,22.669z"/>
	<path id="path2946" opacity="0.9" fill="#333333" enable-background="new    " d="M119.498,12.548
		c0.189,0.187,0.338,0.434,0.498,0.67l3.736,3.666c1.807,1.97,1.744,5.785,1.744,5.785l0.045-2.119c0-2.961-1.146-5.744-3.229-7.838
		c-1.597-1.606-3.606-2.606-5.778-3l1.209,1.188C118.369,11.421,118.969,12.015,119.498,12.548L119.498,12.548z"/>
</g>
<path id="path2948" opacity="0.5" fill="#333333" enable-background="new    " d="M114.527,4.471h-3.439l1.141,1.117h2.301
	c8.236,0,14.919,6.723,14.919,15.014v93.832c0,8.291-6.683,15.008-14.919,15.008H20.508c-8.242,0-14.916-6.717-14.916-15.008V20.602
	c0-8.291,6.674-15.014,14.916-15.014h2.301l1.139-1.117h-3.439c-4.283,0-8.313,1.68-11.342,4.726
	c-3.023,3.049-4.691,7.098-4.691,11.405v93.832c0,8.896,7.193,16.127,16.033,16.127h94.021c8.842,0,16.037-7.231,16.037-16.127
	V20.602C130.564,11.708,123.367,4.471,114.527,4.471z"/>
<path id="path2950" opacity="0.2" fill="#B2B2B2" enable-background="new    " d="M114.527-0.001h-13.172
	c3.326,0,6.336,1.297,8.588,3.399c-0.002-0.003-0.002-0.007-0.006-0.011l-0.004-0.054l2.295,2.254h2.299
	c8.238,0,14.918,6.722,14.918,15.013v93.832c0,8.291-6.68,15.006-14.918,15.006H20.506c-8.242,0-14.916-6.715-14.916-15.006v-93.83
	c0-8.291,6.674-15.014,14.916-15.014h2.301l2.295-2.254v0.055c-0.004,0.004-0.008,0.008-0.008,0.011C27.342,1.296,30.355,0,33.678,0
	H20.506C15.02,0,9.867,2.146,5.994,6.049C2.127,9.938,0,15.106,0,20.603v93.831c0,11.356,9.199,20.602,20.506,20.602h94.021
	c11.307,0,20.508-9.24,20.508-20.602V20.602C135.035,9.241,125.834-0.001,114.527-0.001z"/>
<g id="g2952">
	<path id="path2954" opacity="0.4" fill="#333333" enable-background="new    " d="M109.943,3.398
		c-0.002-0.003-0.002-0.007-0.006-0.011l-0.002-0.034h-0.045C109.908,3.37,109.926,3.384,109.943,3.398L109.943,3.398z"/>
	<path id="path2956" opacity="0.4" fill="#333333" enable-background="new    " d="M25.102,3.354v0.034
		c-0.004,0.004-0.008,0.008-0.008,0.011c0.018-0.018,0.034-0.028,0.053-0.045H25.102z"/>
	<path id="path2958" opacity="0.4" fill="#333333" enable-background="new    " d="M114.527,3.354h-4.574l2.275,2.234h2.299
		c8.238,0,14.918,6.722,14.918,15.013v93.833c0,8.291-6.68,15.006-14.918,15.006H20.506c-8.242,0-14.916-6.715-14.916-15.006V20.602
		c0-8.291,6.674-15.014,14.916-15.014h2.301l2.275-2.233h-4.576c-4.588,0-8.896,1.794-12.133,5.057
		c-3.24,3.256-5.02,7.586-5.02,12.19v93.832c0,9.508,7.695,17.243,17.149,17.243h94.021c9.453,0,17.147-7.735,17.147-17.243V20.602
		C131.678,11.091,123.982,3.354,114.527,3.354L114.527,3.354z"/>
</g>
</svg>
