<?xml version="1.0" encoding="utf-8"?>
<!-- Generator: Adobe Illustrator 15.0.0, SVG Export Plug-In . SVG Version: 6.00 Build 0)  -->
<!DOCTYPE svg PUBLIC "-//W3C//DTD SVG 1.1//EN" "http://www.w3.org/Graphics/SVG/1.1/DTD/svg11.dtd">
<svg version="1.1" id="Layer_1" xmlns:svg="http://www.w3.org/2000/svg"
	 xmlns="http://www.w3.org/2000/svg" xmlns:xlink="http://www.w3.org/1999/xlink" x="0px" y="0px" width="135.035px"
	 height="135.031px" viewBox="0 0 135.035 135.031" enable-background="new 0 0 135.035 135.031" xml:space="preserve">
<path id="bgColor00" fill="#FFFFFF" d="M125.479,120.955l-0.004-88.43c0,0,0.063-3.817-1.75-5.784l-13.795-13.55v0.056
	c0.004,0.002,0.008,0.006,0.008,0.01c-2.248-2.104-5.263-3.399-8.584-3.399H33.672c-3.323,0-6.336,1.297-8.586,3.399
	c0.005-0.004,0.005-0.008,0.009-0.01l0.003-0.056L11.3,26.741c-1.812,1.967-1.749,5.784-1.749,5.784L9.547,120.98l0.064-0.135
	c1.454,4.396,6.049,6.575,10.889,6.575h94.027c4.848,0,9.555-1.955,11.002-6.358L125.479,120.955L125.479,120.955z"/>
<linearGradient id="path2890_1_" gradientUnits="userSpaceOnUse" x1="679.9854" y1="573.3506" x2="679.9854" y2="662.3616" gradientTransform="matrix(1 0 0 1 -612.2744 -557.584)">
	<stop  offset="0" style="stop-color:#FFFFFF;stop-opacity:0"/>
	<stop  offset="0.0925" style="stop-color:#F1F1F1;stop-opacity:0.0203"/>
	<stop  offset="0.2681" style="stop-color:#CBCBCB;stop-opacity:0.059"/>
	<stop  offset="0.5085" style="stop-color:#8F8F8F;stop-opacity:0.1119"/>
	<stop  offset="0.801" style="stop-color:#3C3C3C;stop-opacity:0.1762"/>
	<stop  offset="1" style="stop-color:#000000;stop-opacity:0.22"/>
</linearGradient>
<path id="path2890" fill="url(#path2890_1_)" d="M101.55,12.094H33.868c-5.069,0-10.358,4.285-10.358,10.36v67.681
	c0,6.146,5.289,10.361,10.358,10.361h67.682c5.987,0,10.362-5.379,10.362-10.361V22.454
	C111.912,17.283,107.277,12.094,101.55,12.094z M108.008,45.196c-11.441,5.285-25.717,8.453-41.246,8.453
	c-14.556,0-28.012-2.793-39.07-7.491V24.49c0-2.515,0.979-4.88,2.758-6.658c1.776-1.778,4.139-2.757,6.651-2.757h61.491
	c2.519,0,4.88,0.979,6.656,2.757c1.778,1.778,2.759,4.142,2.759,6.658V45.196z"/>
<linearGradient id="path2897_1_" gradientUnits="userSpaceOnUse" x1="679.9824" y1="562.3291" x2="679.9824" y2="665.8121" gradientTransform="matrix(1 0 0 1 -612.2744 -557.584)">
	<stop  offset="0.118" style="stop-color:#000000;stop-opacity:0.25"/>
	<stop  offset="1" style="stop-color:#000000;stop-opacity:0.08"/>
</linearGradient>
<path id="path2897" opacity="0.9" fill="url(#path2897_1_)" enable-background="new    " d="M101.549,9.857H33.868
	c-6.956,0-12.598,5.64-12.598,12.597v67.682c0,6.957,5.642,12.597,12.598,12.597h67.683c6.959,0,12.596-5.64,12.596-12.597V22.454
	C114.145,15.497,108.508,9.857,101.549,9.857z M111.912,90.135c0,5.713-4.648,10.361-10.361,10.361H33.868
	c-5.711,0-10.358-4.648-10.358-10.361V22.454c0-2.769,1.078-5.368,3.034-7.327c1.957-1.954,4.555-3.033,7.324-3.033h67.683
	c2.77,0,5.369,1.079,7.326,3.033c1.957,1.959,3.035,4.561,3.035,7.327V90.135z"/>
<path id="path2899" opacity="0.8" fill="#FFFFFF" enable-background="new    " d="M111.542,91.15
	c-1.258,4.396-5.267,7.436-10.188,7.436H33.672c-4.813,0-8.45-3.229-9.951-7.018l-1.745,2.947c1.854,4.361,6.384,8.215,11.696,8.215
	h67.684c5.729,0,10.557-4.479,12.084-9.25L111.542,91.15z"/>
<linearGradient id="path2906_1_" gradientUnits="userSpaceOnUse" x1="986.3105" y1="-583.918" x2="967.9012" y2="-584.2327" gradientTransform="matrix(1 0 0 -1 -958.7139 -517.0078)">
	<stop  offset="0" style="stop-color:#000000;stop-opacity:0.25"/>
	<stop  offset="1" style="stop-color:#000000;stop-opacity:0.5"/>
</linearGradient>
<path id="path2906" fill="url(#path2906_1_)" d="M21.075,90.135V22.454c0-3.64,1.553-6.908,4.021-9.207l0.003-0.056L11.3,26.741
	c-1.812,1.967-1.749,5.784-1.749,5.784L9.547,120.98l12.378-26.33C21.385,93.248,21.075,91.729,21.075,90.135z"/>
<linearGradient id="path2913_1_" gradientUnits="userSpaceOnUse" x1="1417.5918" y1="-583.8594" x2="1399.1844" y2="-584.1743" gradientTransform="matrix(-1 0 0 -1 1521.5469 -517.0078)">
	<stop  offset="0" style="stop-color:#000000;stop-opacity:0.25"/>
	<stop  offset="1" style="stop-color:#000000;stop-opacity:0.5"/>
</linearGradient>
<path id="path2913" fill="url(#path2913_1_)" d="M113.95,22.454v67.682c0,1.595-0.308,3.112-0.847,4.517l12.375,26.33l-0.004-88.455
	c0,0,0.062-3.818-1.75-5.785L109.93,13.191v0.057C112.396,15.545,113.95,18.814,113.95,22.454z"/>
<linearGradient id="path2920_1_" gradientUnits="userSpaceOnUse" x1="1026.2559" y1="-618.7886" x2="1026.2559" y2="-653.761" gradientTransform="matrix(1 0 0 -1 -958.7139 -517.0078)">
	<stop  offset="0" style="stop-color:#000000;stop-opacity:0.2"/>
	<stop  offset="1" style="stop-color:#000000;stop-opacity:0.7"/>
</linearGradient>
<path id="path2920" fill="url(#path2920_1_)" d="M20.5,127.424h94.027c4.848,0,9.504-2.063,10.951-6.469l-12.375-26.303
	c-1.818,4.724-6.39,8.078-11.75,8.078H33.672c-5.363,0-9.93-3.356-11.747-8.08l-12.32,26.18
	C11.052,125.236,15.655,127.424,20.5,127.424z"/>
<path id="path2922" opacity="0.8" enable-background="new    " d="M124.928,17.043c-1.457-4.389-5.564-7.564-10.4-7.564H20.5
	c-6.049,0-10.973,4.965-10.973,11.066v15.332H9.55v-3.352c0,0-0.063-3.818,1.749-5.785l13.798-13.551l-0.003,0.057
	c-0.004,0.002-0.004,0.006-0.008,0.01c2.248-2.104,5.262-3.398,8.584-3.398h67.684c3.321,0,6.336,1.295,8.584,3.398
	c0-0.004-0.004-0.008-0.008-0.01v-0.057l13.795,13.551c1.813,1.967,1.75,5.785,1.75,5.785v3.705h0.023V25.049L124.928,17.043
	L124.928,17.043z"/>
<g id="g2924">
	<path id="path2926" opacity="0.2" fill="#B2B2B2" enable-background="new    " d="M114.527,0H20.5C15.016,0,9.86,2.146,5.987,6.046
		c-3.861,3.89-5.99,9.058-5.99,14.556v93.832c0,11.357,9.196,20.6,20.504,20.6h94.026c11.304,0,20.505-9.24,20.505-20.6V20.602
		C135.032,9.243,125.831,0,114.527,0z M129.441,114.434c0,8.291-6.678,15.01-14.914,15.01H20.5c-8.238,0-14.914-6.719-14.914-15.01
		V20.602c0-8.293,6.676-15.015,14.914-15.015h94.027c8.234,0,14.914,6.722,14.914,15.015V114.434L129.441,114.434L129.441,114.434z"
		/>
	<path id="path2928" opacity="0.4" fill="#333333" enable-background="new    " d="M114.527,3.352H20.5
		c-4.584,0-8.896,1.796-12.135,5.057c-3.234,3.258-5.018,7.587-5.018,12.192v93.833c0,9.508,7.695,17.243,17.15,17.243h94.028
		c9.455,0,17.146-7.735,17.146-17.243V20.602C131.676,11.089,123.984,3.352,114.527,3.352z M129.441,114.434
		c0,8.291-6.678,15.01-14.914,15.01H20.5c-8.238,0-14.914-6.719-14.914-15.01V20.602c0-8.293,6.676-15.015,14.914-15.015h94.027
		c8.234,0,14.914,6.722,14.914,15.015V114.434L129.441,114.434L129.441,114.434z"/>
	<path id="path2930" opacity="0.5" fill="#333333" enable-background="new    " d="M114.527,4.471H20.5
		c-4.285,0-8.313,1.677-11.34,4.724c-3.027,3.048-4.692,7.098-4.692,11.406v93.833c0,8.894,7.192,16.127,16.032,16.127h94.027
		c8.84,0,16.033-7.233,16.033-16.127V20.602C130.561,11.708,123.368,4.471,114.527,4.471z M129.441,114.434
		c0,8.291-6.678,15.01-14.914,15.01H20.5c-8.238,0-14.914-6.719-14.914-15.01V20.602c0-8.293,6.676-15.015,14.914-15.015h94.027
		c8.234,0,14.914,6.722,14.914,15.015V114.434L129.441,114.434L129.441,114.434z"/>
</g>
<path id="path2932" opacity="0.2" fill="#4D4D4D" enable-background="new    " d="M114.527,5.536H20.5
	c-8.238,0-14.914,6.72-14.914,15.012v93.833c0,8.292,6.676,15.01,14.914,15.01h94.027c8.234,0,14.914-6.719,14.914-15.01V20.547
	C129.441,12.255,122.764,5.536,114.527,5.536L114.527,5.536z M121.555,118.322c0,3.928-3.152,7.125-7.025,7.125H20.5
	c-3.877,0-7.029-3.197-7.029-7.125V20.547c0-3.929,3.152-7.126,7.029-7.126h4.4c2.271-2.202,5.36-3.563,8.771-3.563h67.683
	c3.414,0,6.504,1.361,8.771,3.563h4.405c3.873,0,7.023,3.197,7.023,7.126v97.775H121.555z"/>
<path id="path2934" opacity="0.4" enable-background="new    " d="M114.527,5.536H20.5c-8.238,0-14.914,6.718-14.914,15.01v93.837
	c0,8.29,6.676,15.008,14.914,15.008h94.027c8.234,0,14.914-6.719,14.914-15.008V20.545C129.441,12.253,122.764,5.536,114.527,5.536
	L114.527,5.536z M123.525,117.406L123.525,117.406c0,5.016-4.037,9.094-8.998,9.094H20.5c-4.963,0-9-4.078-9-9.094V20.545
	c0-5.016,4.037-9.096,9-9.096h7.047c1.813-1.012,3.897-1.594,6.125-1.594h67.684c2.227,0,4.311,0.582,6.125,1.594h7.049
	c4.959,0,8.996,4.08,8.996,9.096V117.406L123.525,117.406z"/>
<path id="path2936" opacity="0.9" fill="#333333" enable-background="new    " d="M114.527,5.536H20.5
	c-8.234,0-14.914,6.718-14.914,15.01v93.837c0,8.29,6.676,15.008,14.914,15.008h94.027c8.234,0,14.914-6.719,14.914-15.008V20.545
	C129.441,12.253,122.768,5.536,114.527,5.536L114.527,5.536z M125.5,116.359c0,6.102-4.924,11.063-10.973,11.063H20.5
	c-6.049,0-10.973-4.963-10.973-11.063V20.545c0-6.102,4.924-11.066,10.973-11.066h94.027c6.049,0,10.973,4.965,10.973,11.066
	V116.359z"/>
<path id="path2938" opacity="0.5" fill="#FFFFFF" enable-background="new    " d="M114.527,128.605H20.5
	c-8.242,0-14.914-6.717-14.914-15.008v0.782c0,8.29,6.672,15.011,14.914,15.011h94.027c8.229,0,14.914-6.722,14.914-15.011v-0.782
	C129.441,121.889,122.76,128.605,114.527,128.605L114.527,128.605z"/>
<path opacity="0.2" fill="#FFFFFF" d="M107.869,45.331c-11.441,5.285-25.717,8.453-41.246,8.453c-14.556,0-28.012-2.793-39.07-7.49
	V24.625c0-2.516,0.979-4.881,2.759-6.658c1.776-1.777,4.139-2.757,6.651-2.757h61.491c2.519,0,4.88,0.979,6.656,2.757
	c1.778,1.777,2.759,4.143,2.759,6.658V45.331z"/>
</svg>
