<?xml version="1.0" encoding="utf-8"?>
<!-- Generator: Adobe Illustrator 15.0.0, SVG Export Plug-In . SVG Version: 6.00 Build 0)  -->
<!DOCTYPE svg PUBLIC "-//W3C//DTD SVG 1.1//EN" "http://www.w3.org/Graphics/SVG/1.1/DTD/svg11.dtd">
<svg version="1.1" id="Layer_1" xmlns:svg="http://www.w3.org/2000/svg"
	 xmlns="http://www.w3.org/2000/svg" xmlns:xlink="http://www.w3.org/1999/xlink" x="0px" y="0px" width="540.141px"
	 height="135.031px" viewBox="0 0 540.141 135.031" enable-background="new 0 0 540.141 135.031" xml:space="preserve">
<path id="bgColor00" fill="#FFFFFF" d="M530.581,22.668c0,0,0.063-3.816-1.744-5.783L515.036,3.336l0.004,0.053
	c0.004,0.004,0.004,0.008,0.006,0.01C512.792,1.295,509.782,0,506.456,0H33.685c-3.323,0-6.338,1.295-8.586,3.398
	c0-0.002,0.004-0.006,0.008-0.01V3.336L11.309,16.885c-1.809,1.967-1.75,5.783-1.75,5.783l-0.004,88.455l0.004-0.004v3.682
	c0.219,5.906,5.036,10.645,10.951,10.645h499.12c5.916,0,10.732-4.736,10.955-10.645v-3.682v0.004L530.581,22.668z"/>
<linearGradient id="path10735_1_" gradientUnits="userSpaceOnUse" x1="641.9082" y1="499.0381" x2="641.9082" y2="590.1788" gradientTransform="matrix(1 0 0 1 -371.835 -496.1289)">
	<stop  offset="0" style="stop-color:#FFFFFF;stop-opacity:0"/>
	<stop  offset="0.1416" style="stop-color:#C7C7C7;stop-opacity:0.0433"/>
	<stop  offset="0.311" style="stop-color:#8B8B8B;stop-opacity:0.095"/>
	<stop  offset="0.4744" style="stop-color:#5A5A5A;stop-opacity:0.145"/>
	<stop  offset="0.6272" style="stop-color:#333333;stop-opacity:0.1917"/>
	<stop  offset="0.7672" style="stop-color:#171717;stop-opacity:0.2344"/>
	<stop  offset="0.8899" style="stop-color:#060606;stop-opacity:0.2719"/>
	<stop  offset="0.9818" style="stop-color:#000000;stop-opacity:0.3"/>
</linearGradient>
<path id="path10735" opacity="0.45" fill="url(#path10735_1_)" enable-background="new    " d="M519.057,80.277
	c0,6.957-5.641,12.594-12.602,12.594H33.685c-6.957,0-12.599-5.637-12.599-12.594v-67.68C21.086,5.639,26.728,0,33.685,0h472.771
	c6.961,0,12.604,5.639,12.604,12.598v67.679H519.057z"/>
<path id="path10737" opacity="0.4" fill="#FFFFFF" enable-background="new    " d="M506.456,0H33.685
	c-6.957,0-12.599,5.639-12.599,12.598v67.679c0,6.957,5.642,12.595,12.599,12.595h472.771c6.961,0,12.604-5.638,12.604-12.595
	V12.598C519.057,5.639,513.417,0,506.456,0z M516.821,80.277c0,5.713-4.652,10.361-10.365,10.361H33.685
	c-5.715,0-10.361-4.648-10.361-10.361v-67.68c0-2.768,1.08-5.371,3.033-7.328c1.955-1.955,4.558-3.033,7.328-3.033h472.771
	c2.771,0,5.373,1.078,7.33,3.033c1.957,1.957,3.035,4.561,3.035,7.328V80.277L516.821,80.277z"/>
<path id="path10739" opacity="0.2" fill="#FFFFFF" enable-background="new    " d="M503.5,5.217H36.917
	c-2.514,0-4.875,0.98-6.651,2.758c-1.781,1.777-2.759,4.143-2.759,6.656v21.668c11.062,4.701,224.521,7.49,239.076,7.49
	c15.533,0,234.89-3.166,246.333-8.449V14.631c0-2.514-0.977-4.879-2.758-6.656C508.383,6.197,506.018,5.217,503.5,5.217L503.5,5.217
	z"/>
<path id="path10741" opacity="0.8" fill="#FFFFFF" enable-background="new    " d="M516.646,81.291
	c-1.257,4.398-5.267,7.434-10.189,7.434H33.685c-4.813,0-8.451-3.227-9.957-7.014l-1.741,2.945
	c1.851,4.365,6.385,8.215,11.698,8.215h472.771c5.734,0,10.563-4.477,12.086-9.248L516.646,81.291z"/>
<linearGradient id="path10748_1_" gradientUnits="userSpaceOnUse" x1="402.9092" y1="553.124" x2="384.5036" y2="553.4388" gradientTransform="matrix(1 0 0 1 -371.835 -496.1289)">
	<stop  offset="0" style="stop-color:#000000;stop-opacity:0"/>
	<stop  offset="1" style="stop-color:#000000;stop-opacity:0.7"/>
</linearGradient>
<path id="path10748" fill="url(#path10748_1_)" d="M21.082,80.277v-67.68c0-3.643,1.553-6.908,4.02-9.209V3.336L11.307,16.885
	c-1.809,1.967-1.75,5.783-1.75,5.783l-0.004,88.455l12.379-26.332C21.389,83.389,21.082,81.871,21.082,80.277z"/>
<linearGradient id="path10755_1_" gradientUnits="userSpaceOnUse" x1="2190.9092" y1="553.124" x2="2172.5029" y2="553.4387" gradientTransform="matrix(-1 0 0 1 2699.9727 -496.1289)">
	<stop  offset="0" style="stop-color:#000000;stop-opacity:0"/>
	<stop  offset="1" style="stop-color:#000000;stop-opacity:0.7"/>
</linearGradient>
<path id="path10755" fill="url(#path10755_1_)" d="M519.057,12.598v67.679c0,1.595-0.309,3.111-0.848,4.515l12.375,26.332
	l-0.004-88.455c0,0,0.063-3.816-1.744-5.783l-13.801-13.55l0.004,0.053C517.506,5.689,519.057,8.955,519.057,12.598L519.057,12.598z
	"/>
<linearGradient id="path10762_1_" gradientUnits="userSpaceOnUse" x1="641.9072" y1="579.3047" x2="641.9072" y2="622.6881" gradientTransform="matrix(1 0 0 1 -371.835 -496.1289)">
	<stop  offset="0" style="stop-color:#000000;stop-opacity:0"/>
	<stop  offset="1" style="stop-color:#000000;stop-opacity:0.7"/>
</linearGradient>
<path id="path10762" fill="url(#path10762_1_)" d="M518.209,84.791c-1.822,4.725-6.387,8.08-11.754,8.08H33.685
	c-5.364,0-9.934-3.355-11.749-8.08L9.559,111.117v3.684c0.219,5.906,5.036,10.645,10.951,10.645h499.12
	c5.916,0,10.732-4.736,10.955-10.645v-3.684L518.209,84.791z"/>
<g id="g10764">
	<g id="g10766">
		<path id="path10768" opacity="0.2" fill="#4D4D4D" enable-background="new    " d="M519.629,5.537h-2.283l5.461,5.361
			c0.646,0.521,1.248,1.117,1.777,1.65c0.271,0.275,0.516,0.621,0.738,0.992c0.455,0.709,0.754,1.523,0.938,2.309
			c0.258,0.949,0.4,1.914,0.4,2.727v95.803c0,3.928-3.156,7.125-7.033,7.125H20.51c-3.878,0-7.028-3.197-7.028-7.125V18.576
			c0-1.912,0.734-4.68,2.076-6.027c0.561-0.566,1.203-1.201,1.902-1.748l5.357-5.264H20.51c-8.243,0-14.919,6.721-14.919,15.014
			v93.828c0,8.291,6.676,15.01,14.919,15.01h499.12c8.24,0,14.922-6.719,14.922-15.01V20.551
			C534.551,12.258,527.87,5.537,519.629,5.537z"/>
		<path id="path10770" opacity="0.4" enable-background="new    " d="M519.629,5.537h-2.445l8.084,7.918l-0.061,0.004
			c0.262,0.211,0.535,0.402,0.775,0.645c1.709,1.719,2.647,4.008,2.647,6.447v93.83c0,5.016-4.039,9.092-9.002,9.092H20.51
			c-4.964,0-9.006-4.076-9.006-9.092v-93.83c0-2.393,0.917-4.633,2.567-6.342l-0.041-0.01l8.813-8.662H20.51
			c-8.243,0-14.919,6.721-14.919,15.014v93.83c0,8.291,6.676,15.008,14.919,15.008h499.12c8.24,0,14.922-6.717,14.922-15.008v-93.83
			C534.551,12.258,527.87,5.537,519.629,5.537z"/>
		<path id="path10772" opacity="0.9" fill="#333333" enable-background="new    " d="M519.629,5.537h-2.434l4.121,4.109
			c2.284,0.354,4.397,1.391,6.061,3.066c2.086,2.092,3.225,4.875,3.225,7.838v93.83c0,6.103-4.918,11.063-10.973,11.063H20.51
			c-6.05,0-10.973-4.963-10.973-11.063V20.55c0-2.965,1.141-5.746,3.222-7.838c1.629-1.641,3.684-2.676,5.911-3.053l4.188-4.123
			H20.51c-8.243,0-14.919,6.721-14.919,15.014v93.83c0,8.291,6.676,15.009,14.919,15.009h499.12c8.24,0,14.922-6.718,14.922-15.009
			V20.55C534.551,12.258,527.87,5.537,519.629,5.537z"/>
		<path id="path10774" opacity="0.5" fill="#FFFFFF" enable-background="new    " d="M519.973,128.568H20.85
			c-8.243,0-14.917-6.717-14.917-15.006v0.783c0,8.287,6.674,15.008,14.917,15.008h499.123c8.236,0,14.916-6.721,14.916-15.008
			v-0.783C534.889,121.852,528.209,128.568,519.973,128.568L519.973,128.568z"/>
	</g>
	<g id="g10776">
		<path id="path10778" opacity="0.9" fill="#333333" enable-background="new    " d="M9.557,22.668c0,0-0.059-3.816,1.75-5.783
			l3.723-3.66c0.168-0.248,0.346-0.48,0.543-0.676c0.563-0.566,1.211-1.201,1.902-1.75l1.141-1.121
			c-2.196,0.385-4.227,1.41-5.842,3.035c-2.076,2.092-3.221,4.873-3.221,7.838L9.557,22.668z"/>
		<path id="path10780" opacity="0.9" fill="#333333" enable-background="new    " d="M524.602,12.549
			c0.189,0.184,0.339,0.432,0.498,0.668l3.736,3.668c1.807,1.967,1.744,5.783,1.744,5.783l0.045-2.117
			c0-2.963-1.146-5.746-3.225-7.838c-1.599-1.609-3.611-2.609-5.785-3.002l1.209,1.188C523.473,11.42,524.073,12.014,524.602,12.549
			L524.602,12.549z"/>
	</g>
</g>
<path id="path10782" opacity="0.5" fill="#333333" enable-background="new    " d="M519.629,4.471h-3.438l1.141,1.119h2.299
	c8.24,0,14.92,6.721,14.92,15.012v93.832c0,8.291-6.68,15.006-14.92,15.006H20.51c-8.243,0-14.919-6.715-14.919-15.006V20.602
	c0-8.291,6.676-15.012,14.919-15.012h2.302l1.139-1.119h-3.44c-4.286,0-8.316,1.68-11.344,4.725
	c-3.026,3.049-4.694,7.1-4.694,11.406v93.832c0,8.895,7.197,16.127,16.038,16.127h499.12c8.842,0,16.039-7.232,16.039-16.127V20.602
	C535.67,11.709,528.471,4.471,519.629,4.471L519.629,4.471z"/>
<path id="path10784" opacity="0.2" fill="#B2B2B2" enable-background="new    " d="M519.629,0h-13.174
	c3.326,0,6.336,1.295,8.59,3.398c-0.002-0.002-0.002-0.006-0.006-0.01l-0.004-0.053l2.295,2.254h2.299
	c8.24,0,14.922,6.721,14.922,15.012v93.833c0,8.291-6.682,15.006-14.922,15.006H20.51c-8.243,0-14.919-6.715-14.919-15.006V20.602
	c0-8.291,6.676-15.012,14.919-15.012h2.302l2.295-2.254v0.053c-0.004,0.004-0.008,0.008-0.008,0.01C27.347,1.295,30.361,0,33.685,0
	H20.51C15.022,0,9.869,2.146,5.995,6.049C2.128,9.936,0,15.104,0,20.602v93.832c0,11.357,9.201,20.6,20.51,20.6h499.12
	c11.312,0,20.512-9.24,20.512-20.6V20.602C540.141,9.242,530.938,0,519.629,0z"/>
<g id="g10786">
	<path id="path10788" opacity="0.4" fill="#333333" enable-background="new    " d="M515.045,3.398
		c-0.002-0.002-0.002-0.006-0.006-0.01l-0.002-0.035h-0.045C515.01,3.369,515.028,3.383,515.045,3.398z"/>
	<path id="path10790" opacity="0.4" fill="#333333" enable-background="new    " d="M25.102,3.354v0.035
		c-0.004,0.004-0.008,0.008-0.008,0.01c0.018-0.016,0.035-0.029,0.053-0.045H25.102z"/>
	<path id="path10792" opacity="0.4" fill="#333333" enable-background="new    " d="M519.629,3.354h-4.574l2.275,2.236h2.299
		c8.24,0,14.922,6.721,14.922,15.012v93.832c0,8.291-6.682,15.006-14.922,15.006H20.51c-8.243,0-14.919-6.715-14.919-15.006V20.602
		c0-8.291,6.676-15.012,14.919-15.012h2.302l2.275-2.236H20.51c-4.589,0-8.896,1.795-12.136,5.057
		c-3.24,3.256-5.018,7.586-5.018,12.191v93.832c0,9.508,7.696,17.244,17.153,17.244H519.63c9.457,0,17.154-7.736,17.154-17.244
		V20.602C536.784,11.092,529.086,3.354,519.629,3.354L519.629,3.354z"/>
</g>
</svg>
