<?xml version="1.0" encoding="utf-8"?>
<!-- Generator: Adobe Illustrator 15.0.0, SVG Export Plug-In . SVG Version: 6.00 Build 0)  -->
<!DOCTYPE svg PUBLIC "-//W3C//DTD SVG 1.1//EN" "http://www.w3.org/Graphics/SVG/1.1/DTD/svg11.dtd">
<svg version="1.1" id="Layer_1" xmlns:svg="http://www.w3.org/2000/svg"
	 xmlns="http://www.w3.org/2000/svg" xmlns:xlink="http://www.w3.org/1999/xlink" x="0px" y="0px" width="540.141px"
	 height="135.031px" viewBox="0 0 540.141 135.031" enable-background="new 0 0 540.141 135.031" xml:space="preserve">
<path id="bgColor00" fill="#FFFFFF" d="M530.586,120.955l-0.004-88.43c0,0,0.063-3.818-1.748-5.785l-13.799-13.549v0.055
	c0.004,0.002,0.008,0.006,0.008,0.01c-2.248-2.104-5.264-3.398-8.586-3.398H33.682c-3.324,0-6.338,1.295-8.587,3.398
	c0.004-0.004,0.004-0.008,0.008-0.01l0.003-0.055L11.305,26.74c-1.812,1.967-1.749,5.785-1.749,5.785L9.552,120.98l0.065-0.135
	c1.454,4.396,6.05,6.576,10.89,6.576h499.128c4.849,0,9.558-1.956,11.002-6.359L530.586,120.955z"/>
<linearGradient id="path11395_1_" gradientUnits="userSpaceOnUse" x1="642.9893" y1="506.1768" x2="642.9893" y2="596.718" gradientTransform="matrix(1 0 0 1 -371.835 -496.1289)">
	<stop  offset="0" style="stop-color:#FFFFFF;stop-opacity:0"/>
	<stop  offset="0.1416" style="stop-color:#C7C7C7;stop-opacity:0.0433"/>
	<stop  offset="0.311" style="stop-color:#8B8B8B;stop-opacity:0.095"/>
	<stop  offset="0.4744" style="stop-color:#5A5A5A;stop-opacity:0.145"/>
	<stop  offset="0.6272" style="stop-color:#333333;stop-opacity:0.1917"/>
	<stop  offset="0.7672" style="stop-color:#171717;stop-opacity:0.2344"/>
	<stop  offset="0.8899" style="stop-color:#060606;stop-opacity:0.2719"/>
	<stop  offset="0.9818" style="stop-color:#000000;stop-opacity:0.3"/>
</linearGradient>
<path id="path11395" opacity="0.45" fill="url(#path11395_1_)" enable-background="new    " d="M520.141,90.135
	c0,6.957-5.637,12.596-12.598,12.596H34.768c-6.957,0-12.6-5.639-12.6-12.596V22.453c0-6.957,5.643-12.596,12.6-12.596h472.775
	c6.961,0,12.598,5.639,12.598,12.596V90.135z"/>
<path id="path11397" opacity="0.4" fill="#FFFFFF" enable-background="new    " d="M506.458,9.857H33.682
	c-6.957,0-12.6,5.639-12.6,12.596v67.682c0,6.957,5.643,12.596,12.6,12.596h472.775c6.961,0,12.598-5.639,12.598-12.596V22.453
	C519.055,15.496,513.418,9.857,506.458,9.857z M516.823,90.135c0,5.713-4.65,10.361-10.365,10.361H33.682
	c-5.711,0-10.361-4.648-10.361-10.361V22.453c0-2.768,1.079-5.369,3.035-7.327c1.959-1.954,4.557-3.033,7.326-3.033h472.775
	c2.77,0,5.371,1.079,7.328,3.033c1.957,1.958,3.037,4.56,3.037,7.327L516.823,90.135L516.823,90.135z"/>
<path id="path11399" opacity="0.2" fill="#FFFFFF" enable-background="new    " d="M503.502,15.073H36.918
	c-2.515,0-4.877,0.979-6.655,2.757c-1.778,1.779-2.759,4.143-2.759,6.658v21.668c11.063,4.699,230.52,7.49,245.079,7.49
	c15.533,0,228.893-3.166,240.336-8.451V24.488c0-2.516-0.979-4.879-2.76-6.658C508.381,16.053,506.02,15.073,503.502,15.073
	L503.502,15.073z"/>
<path id="path11401" opacity="0.8" fill="#FFFFFF" enable-background="new    " d="M516.647,91.15
	c-1.259,4.396-5.269,7.434-10.189,7.434H33.682c-4.814,0-8.451-3.229-9.953-7.016l-1.746,2.947
	c1.855,4.361,6.386,8.215,11.699,8.215h472.775c5.732,0,10.559-4.479,12.088-9.25L516.647,91.15z"/>
<linearGradient id="path11408_1_" gradientUnits="userSpaceOnUse" x1="402.9092" y1="562.9795" x2="384.501" y2="563.2943" gradientTransform="matrix(1 0 0 1 -371.835 -496.1289)">
	<stop  offset="0" style="stop-color:#000000;stop-opacity:0"/>
	<stop  offset="1" style="stop-color:#000000;stop-opacity:0.7"/>
</linearGradient>
<path id="path11408" fill="url(#path11408_1_)" d="M21.078,90.135V22.453c0-3.64,1.553-6.908,4.02-9.207l0.003-0.055L11.303,26.74
	c-1.812,1.967-1.749,5.785-1.749,5.785L9.55,120.98l12.378-26.33C21.388,93.246,21.078,91.729,21.078,90.135z"/>
<linearGradient id="path11415_1_" gradientUnits="userSpaceOnUse" x1="2191.6201" y1="562.9795" x2="2173.2109" y2="563.2943" gradientTransform="matrix(-1 0 0 1 2700.6816 -496.1289)">
	<stop  offset="0" style="stop-color:#000000;stop-opacity:0"/>
	<stop  offset="1" style="stop-color:#000000;stop-opacity:0.7"/>
</linearGradient>
<path id="path11415" fill="url(#path11415_1_)" d="M519.055,22.453v67.682c0,1.594-0.305,3.111-0.846,4.516l12.377,26.33
	l-0.004-88.455c0,0,0.063-3.818-1.748-5.785l-13.799-13.549v0.055C517.504,15.545,519.055,18.813,519.055,22.453z"/>
<linearGradient id="path11422_1_" gradientUnits="userSpaceOnUse" x1="641.959" y1="588.9287" x2="641.959" y2="623.9001" gradientTransform="matrix(1 0 0 1 -371.835 -496.1289)">
	<stop  offset="0" style="stop-color:#000000;stop-opacity:0"/>
	<stop  offset="1" style="stop-color:#000000;stop-opacity:0.7"/>
</linearGradient>
<path id="path11422" fill="url(#path11422_1_)" d="M20.507,127.424h499.128c4.849,0,9.558-1.956,11.002-6.361L518.209,94.65
	c-1.816,4.723-6.387,8.08-11.752,8.08H33.682c-5.364,0-9.931-3.357-11.75-8.08L9.61,120.83
	C11.057,125.236,15.66,127.424,20.507,127.424z"/>
<path id="path11424" opacity="0.8" enable-background="new    " d="M519.635,9.479H20.507c-6.05,0-10.974,4.965-10.974,11.066
	v15.332h0.022v-3.352c0,0-0.063-3.818,1.749-5.785l13.801-13.549l-0.003,0.055c-0.004,0.002-0.004,0.006-0.008,0.01
	c2.249-2.104,5.263-3.398,8.587-3.398h472.774c3.324,0,6.338,1.295,8.586,3.398c0-0.004-0.004-0.008-0.006-0.01v-0.055
	l13.797,13.549c1.811,1.967,1.75,5.785,1.75,5.785v3.707h0.025V25.049l-0.572-8.006C528.579,12.654,524.471,9.479,519.635,9.479z"/>
<g id="g11426">
	<path id="path11428" opacity="0.2" fill="#B2B2B2" enable-background="new    " d="M519.635,0H20.507
		C15.021,0,9.865,2.146,5.991,6.046C2.129,9.936,0,15.104,0,20.601v93.833c0,11.356,9.198,20.6,20.507,20.6h499.128
		c11.306,0,20.506-9.241,20.506-20.6V20.601C540.141,9.242,530.94,0,519.635,0z M534.551,114.434c0,8.291-6.68,15.01-14.916,15.01
		H20.507c-8.239,0-14.917-6.719-14.917-15.01V20.601c0-8.293,6.678-15.014,14.917-15.014h499.128
		c8.236,0,14.916,6.721,14.916,15.014V114.434z"/>
	<path id="path11430" opacity="0.4" fill="#333333" enable-background="new    " d="M519.635,3.352H20.507
		c-4.585,0-8.896,1.797-12.136,5.057c-3.236,3.258-5.02,7.587-5.02,12.192v93.833c0,9.508,7.698,17.244,17.155,17.244h499.127
		c9.459,0,17.15-7.736,17.15-17.244V20.601C536.786,11.089,529.092,3.352,519.635,3.352z M534.551,114.434
		c0,8.291-6.68,15.01-14.916,15.01H20.507c-8.239,0-14.917-6.719-14.917-15.01V20.601c0-8.293,6.678-15.014,14.917-15.014h499.128
		c8.236,0,14.916,6.721,14.916,15.014V114.434z"/>
	<path id="path11432" opacity="0.5" fill="#333333" enable-background="new    " d="M519.635,4.471H20.507
		c-4.286,0-8.313,1.678-11.341,4.725c-3.029,3.047-4.694,7.097-4.694,11.405v93.833c0,8.894,7.194,16.127,16.035,16.127h499.128
		c8.842,0,16.035-7.233,16.035-16.127V20.601C535.67,11.707,528.477,4.471,519.635,4.471z M534.551,114.434
		c0,8.291-6.68,15.01-14.916,15.01H20.507c-8.239,0-14.917-6.719-14.917-15.01V20.601c0-8.293,6.678-15.014,14.917-15.014h499.128
		c8.236,0,14.916,6.721,14.916,15.014V114.434z"/>
</g>
<path id="path11434" opacity="0.2" fill="#4D4D4D" enable-background="new    " d="M519.635,5.535H20.507
	c-8.239,0-14.917,6.72-14.917,15.012v93.833c0,8.292,6.678,15.011,14.917,15.011h499.128c8.236,0,14.916-6.719,14.916-15.011V20.547
	C534.551,12.255,527.872,5.535,519.635,5.535z M526.663,118.322c0,3.928-3.152,7.125-7.027,7.125H20.507
	c-3.878,0-7.03-3.197-7.03-7.125V20.547c0-3.929,3.152-7.126,7.03-7.126h4.402c2.271-2.202,5.361-3.563,8.772-3.563h472.774
	c3.416,0,6.506,1.361,8.771,3.563h4.406c3.875,0,7.027,3.197,7.027,7.126v97.775H526.663L526.663,118.322z"/>
<path id="path11436" opacity="0.4" enable-background="new    " d="M519.635,5.535H20.507c-8.239,0-14.917,6.718-14.917,15.01
	v93.837c0,8.29,6.678,15.009,14.917,15.009h499.128c8.236,0,14.916-6.719,14.916-15.009V20.545
	C534.551,12.253,527.872,5.535,519.635,5.535z M528.633,117.406c0,5.016-4.037,9.094-8.998,9.094H20.507
	c-4.964,0-9.001-4.078-9.001-9.094V20.545c0-5.016,4.037-9.096,9.001-9.096h7.048c1.815-1.011,3.9-1.592,6.127-1.592h472.775
	c2.227,0,4.311,0.581,6.127,1.592h7.051c4.961,0,8.998,4.08,8.998,9.096V117.406L528.633,117.406z"/>
<path id="path11438" opacity="0.9" fill="#333333" enable-background="new    " d="M519.635,5.535H20.507
	c-8.235,0-14.917,6.718-14.917,15.01v93.837c0,8.29,6.678,15.009,14.917,15.009h499.128c8.236,0,14.916-6.719,14.916-15.009V20.545
	C534.551,12.253,527.875,5.535,519.635,5.535z M530.608,116.357c0,6.104-4.925,11.064-10.976,11.064H20.507
	c-6.05,0-10.974-4.963-10.974-11.064V20.545c0-6.102,4.924-11.066,10.974-11.066h499.128c6.049,0,10.976,4.965,10.976,11.066v95.813
	H530.608L530.608,116.357z"/>
<path id="path11440" opacity="0.5" fill="#FFFFFF" enable-background="new    " d="M519.635,128.605H20.507
	c-8.243,0-14.917-6.72-14.917-15.01v0.784c0,8.29,6.674,15.011,14.917,15.011h499.128c8.232,0,14.916-6.721,14.916-15.011v-0.784
	C534.551,121.889,527.868,128.605,519.635,128.605z"/>
</svg>
