<?xml version="1.0" encoding="UTF-8" standalone="no"?>
<svg
   xmlns:dc="http://purl.org/dc/elements/1.1/"
   xmlns:cc="http://creativecommons.org/ns#"
   xmlns:rdf="http://www.w3.org/1999/02/22-rdf-syntax-ns#"
   xmlns:svg="http://www.w3.org/2000/svg"
   xmlns="http://www.w3.org/2000/svg"
   xmlns:xlink="http://www.w3.org/1999/xlink"
   xmlns:sodipodi="http://sodipodi.sourceforge.net/DTD/sodipodi-0.dtd"
   xmlns:inkscape="http://www.inkscape.org/namespaces/inkscape"
   id="svg15058"
   contentScriptType="text/ecmascript"
   viewBox="0 0 119.16874 119.1807"
   height="119.1807"
   width="119.16946"
   contentStyleType="text/css"
   version="1.1"
   zoomAndPan="magnify"
   preserveAspectRatio="xMidYMid meet"
   inkscape:version="0.47pre2 r22153"
   sodipodi:docname="BU_ci1_gl1_xxx_xxx_003380ff_l1a_1.svg">
  <sodipodi:namedview
     pagecolor="#ffffff"
     bordercolor="#666666"
     borderopacity="1"
     objecttolerance="10"
     gridtolerance="10"
     guidetolerance="10"
     inkscape:pageopacity="0"
     inkscape:pageshadow="2"
     inkscape:window-width="1236"
     inkscape:window-height="1017"
     id="namedview2904"
     showgrid="false"
     inkscape:zoom="1.7352941"
     inkscape:cx="59.58689"
     inkscape:cy="59.5895"
     inkscape:window-x="0"
     inkscape:window-y="0"
     inkscape:window-maximized="0"
     inkscape:current-layer="svg15058" />
  <defs
     id="defs15060">
    <inkscape:perspective
       sodipodi:type="inkscape:persp3d"
       inkscape:vp_x="0 : 68 : 1"
       inkscape:vp_y="0 : 1000 : 0"
       inkscape:vp_z="136 : 68 : 1"
       inkscape:persp3d-origin="68 : 45.333333 : 1"
       id="perspective2906" />
    <linearGradient
       id="linearGradient21275"
       x1="427.48001"
       gradientUnits="userSpaceOnUse"
       y1="37.868999"
       gradientTransform="matrix(0.28060483,0,0,-0.29565883,308.72784,174.93406)"
       x2="427.48001"
       y2="225.62">
      <stop
         id="stop6678-5-7-1-5-5-8-2-6"
         stop-color="#000"
         offset="0" />
      <stop
         id="stop6680-9-4-6-0-1-1-6-50"
         stop-opacity="0"
         stop-color="#000"
         offset="1" />
    </linearGradient>
    <linearGradient
       id="linearGradient8560"
       y2="19.259001"
       gradientUnits="userSpaceOnUse"
       x2="12.438"
       y1="5.3130002"
       x1="12.438">
      <stop
         id="stop6678-5-7-1-5-5-6-5-6-8"
         stop-opacity="0.47058824"
         stop-color="#323232"
         offset="0" />
      <stop
         id="stop16224-7"
         stop-opacity="0.23529412"
         stop-color="#191919"
         offset="0.5" />
      <stop
         id="stop6680-9-4-6-0-1-0-2-9-4"
         stop-opacity="0"
         stop-color="#000"
         offset="1" />
    </linearGradient>
    <linearGradient
       id="linearGradient3301"
       y2="14.148"
       gradientUnits="userSpaceOnUse"
       x2="12.438"
       y1="6.2420001"
       x1="12.438">
      <stop
         id="stop3205-5-7-66-5-9"
         stop-color="#FFF"
         offset="0" />
      <stop
         id="stop3207-2-7-3-7-3"
         stop-opacity="0"
         stop-color="#FFF"
         offset="1" />
    </linearGradient>
    <linearGradient
       id="linearGradient5274"
       x1="323.81"
       xlink:href="#linearGradient21275"
       gradientUnits="userSpaceOnUse"
       y1="131.14"
       gradientTransform="matrix(1.4027809,0,0,1.4014675,-366.4164,-8.4088)"
       x2="293.70001"
       y2="25.806999" />
    <linearGradient
       id="linearGradient6065"
       x1="248"
       xlink:href="#linearGradient8560"
       gradientUnits="userSpaceOnUse"
       x2="248.66"
       gradientTransform="matrix(1.0000103,0,0,0.99996766,-360.0036,-1e-6)"
       y1="9.1359999e-07"
       y2="169.83" />
    <linearGradient
       id="linearGradient6136"
       x1="321.44"
       gradientUnits="userSpaceOnUse"
       y1="138.16"
       gradientTransform="matrix(1.0000103,0,0,0.99996766,-431.80779,-126.33187)"
       x2="321.70001"
       y2="176.39">
      <stop
         id="stop4081"
         stop-color="#FFF"
         offset="0" />
      <stop
         id="stop4083"
         stop-color="#FFF"
         stop-opacity="0"
         offset="1" />
    </linearGradient>
    <linearGradient
       id="linearGradient6185"
       x1="244.05"
       xlink:href="#linearGradient21275"
       gradientUnits="userSpaceOnUse"
       y1="125.5"
       gradientTransform="matrix(1.0000103,0,0,0.99996766,-381.34409,2.214426)"
       x2="243.75999"
       y2="72.948997" />
    <linearGradient
       id="linearGradient6223"
       x1="248.71001"
       xlink:href="#linearGradient3301"
       gradientUnits="userSpaceOnUse"
       x2="248.71001"
       gradientTransform="matrix(1.0000103,0,0,0.99996766,-368.41671,-8.408801)"
       y1="3.6819"
       y2="99.694" />
    <linearGradient
       id="linearGradient6730"
       y2="-4.9871001"
       gradientUnits="userSpaceOnUse"
       x2="12.44"
       gradientTransform="matrix(1.3719746,0,0,1.3719746,155.97898,21.440642)"
       y1="51.025002"
       x1="12.44">
      <stop
         id="stop3205-5-7-66-1-9-3"
         stop-color="#FFF"
         offset="0" />
      <stop
         id="stop3207-2-7-3-3-8-1"
         stop-opacity="0"
         stop-color="#FFF"
         offset="1" />
    </linearGradient>
    <linearGradient
       id="linearGradient6732"
       y2="29.952999"
       gradientUnits="userSpaceOnUse"
       x2="12.438"
       y1="2.9888"
       x1="12.438">
      <stop
         id="stop9765-6-34"
         stop-color="#FFF"
         offset="0" />
      <stop
         id="stop9767-2-1"
         stop-color="#EDEAE5"
         offset="1" />
    </linearGradient>
    <linearGradient
       id="linearGradient6734"
       y2="19.259001"
       xlink:href="#linearGradient8560"
       gradientUnits="userSpaceOnUse"
       x2="12.438"
       y1="5.3130002"
       x1="12.438" />
    <linearGradient
       id="linearGradient6736"
       y2="14.148"
       xlink:href="#linearGradient3301"
       gradientUnits="userSpaceOnUse"
       x2="12.438"
       y1="6.2420001"
       x1="12.438" />
    <linearGradient
       inkscape:collect="always"
       xlink:href="#linearGradient6730"
       id="linearGradient3041"
       gradientUnits="userSpaceOnUse"
       gradientTransform="matrix(1.3719746,0,0,1.3719746,155.97898,21.440642)"
       x1="12.44"
       y1="51.025002"
       x2="12.44"
       y2="-4.9871001" />
    <linearGradient
       inkscape:collect="always"
       xlink:href="#linearGradient6732"
       id="linearGradient3043"
       gradientUnits="userSpaceOnUse"
       x1="12.438"
       y1="2.9888"
       x2="12.438"
       y2="29.952999" />
    <linearGradient
       inkscape:collect="always"
       xlink:href="#linearGradient8560"
       id="linearGradient3045"
       gradientUnits="userSpaceOnUse"
       x1="12.438"
       y1="5.3130002"
       x2="12.438"
       y2="19.259001" />
    <linearGradient
       inkscape:collect="always"
       xlink:href="#linearGradient3301"
       id="linearGradient3047"
       gradientUnits="userSpaceOnUse"
       x1="12.438"
       y1="6.2420001"
       x2="12.438"
       y2="14.148" />
  </defs>
  <metadata
     id="metadata15063">
    <rdf:RDF>
      <cc:Work
         rdf:about="">
        <dc:format>image/svg+xml</dc:format>
        <dc:type
           rdf:resource="http://purl.org/dc/dcmitype/StillImage" />
        <dc:title></dc:title>
      </cc:Work>
    </rdf:RDF>
  </metadata>
  <path
     id="bgColor00"
     d="m 59.64889,0 c -32.94,0 -59.645,26.68 -59.645,59.589 0,32.909 26.704,59.59 59.645,59.59 h -0.13 c 32.94,0 59.647,-26.68 59.647,-59.59 C 119.16589,26.68 92.46189,0 59.51889,0 h 0.13 z"
     style="fill:#003380" />
  <path
     id="path4002"
     d="m 59.64889,0 c -32.94,0 -59.645,26.68 -59.645,59.589 0,32.909 26.705,59.59 59.645,59.59 h -0.12584 c 32.94,0 59.646,-26.68 59.646,-59.59 C 119.16905,26.68 92.46405,0 59.52305,0 h 0.12584 z m -22.124,111.91 c -13.903,-5.828 -23.932,-16.765 -30.251,-30.223 -6.1184,-14.398 -5.4384,-29.777 0,-44.205 5.8378,-13.899 16.788,-23.914 30.251,-30.223 7.0055,-2.9599 14.449,-4.4609 22.123,-4.4609 h -0.12584 c 7.6746,0 15.118,1.501 22.123,4.4609 13.902,5.8286 23.933,16.764 30.251,30.223 6.1195,14.399 5.4393,29.776 0,44.205 -5.8387,13.898 -16.789,23.914 -30.251,30.223 -7.0055,2.9599 -14.45,4.4623 -22.123,4.4623 h 0.12583 c -7.6885,0.16032 -15,-1.7813 -22.123,-4.4623 z"
     style="opacity:0.2;fill:#4d4d4d" />
  <path
     id="path4002-7-7"
     d="m 59.64889,0 c -32.94,0 -59.645,26.68 -59.645,59.589 0,8.6032 26.704,-0.40767 59.645,-0.40767 h -0.13 c 32.94,0 59.647,14.925 59.647,0.40767 C 119.16589,26.68 92.46189,0 59.51889,0 h 0.13 z"
     style="opacity:0.77403846;fill:url(#linearGradient6136)" />
  <path
     id="path4002-7-7-0"
     d="m 0.00359,67.9312 c 4.0672,28.953 28.96,51.248 59.064,51.248 h -0.13 c 30.101,0 54.965,-22.295 59.032,-51.248 h -117.97 0.006 z"
     style="opacity:0.25;fill:url(#linearGradient6185)" />
  <path
     id="path4026"
     d="m 108.18689,31.0782 c 3.8282,7.5498 5.9997,16.079 5.9997,25.123 0,30.757 -24.954,55.687 -55.739,55.687 h 2.53 c -30.782,0 -55.739,-24.931 -55.739,-55.687 0,-9.0353 2.1673,-17.559 5.9913,-25.106 l -1.9947,-3.3355 c -5.8381,9.2097 -9.233,20.12 -9.233,31.831 0,32.911 26.704,59.59 59.647,59.59 h -0.13 c 32.941,0 59.647,-26.68 59.647,-59.59 0,-11.42 -3.2207,-22.087 -8.7969,-31.152 l -2.1827,2.6403 3e-4,-8e-4 z"
     style="opacity:0.25;fill:url(#linearGradient5274)" />
  <path
     id="path4002-7-1"
     d="m 54.65889,1.9582 c -18.241,0 -33.029,14.775 -33.029,32.999 0,18.224 16.788,32.999 35.029,32.999 h 7.2901 c 18.241,0 35.03,-14.775 35.03,-32.999 0,-18.224 -14.788,-32.999 -33.03,-32.999 h -11.29 z"
     style="opacity:0.6;fill:url(#linearGradient6223)" />
  <path
     id="path4017"
     d="m 59.53789,1.9572 0.55001,0 c -21.347,0 -40.431,11.075 -50.303,27.952 0.3535,0.35317 1.2863,1.3749 2.1771,0.68392 7.0546,-9.3968 13.022,-14.527 18.223,-17.323 6.76,-3.819 18.528,-7.2456 29.901,-7.2456 h -0.55001 c 11.375,0 23.143,3.4266 29.901,7.2456 5.2,2.7973 11.17,7.9267 18.222,17.323 0.89357,0.69092 1.825,-0.33075 2.1785,-0.68392 -9.87,-16.877 -28.948,-27.952 -50.299,-27.952 h -6e-4 z"
     style="opacity:0.9;fill:#ffffff" />
</svg>
