<?xml version="1.0" encoding="utf-8"?>
<!-- Generator: Adobe Illustrator 15.0.0, SVG Export Plug-In . SVG Version: 6.00 Build 0)  -->
<!DOCTYPE svg PUBLIC "-//W3C//DTD SVG 1.1//EN" "http://www.w3.org/Graphics/SVG/1.1/DTD/svg11.dtd">
<svg version="1.1" id="Layer_1" xmlns="http://www.w3.org/2000/svg" xmlns:xlink="http://www.w3.org/1999/xlink" x="0px" y="0px"
	 width="600px" height="600px" viewBox="0 0 600 600" enable-background="new 0 0 600 600" xml:space="preserve">
<g>
	
		<linearGradient id="path8153_1_" gradientUnits="userSpaceOnUse" x1="290.8442" y1="-249.4834" x2="317.4294" y2="-99.9661" gradientTransform="matrix(5.0776 0 0 5.0776 -1239.8693 1215.33)">
		<stop  offset="0.1152" style="stop-color:#4D4D4D"/>
		<stop  offset="0.3159" style="stop-color:#494949"/>
		<stop  offset="0.5184" style="stop-color:#3D3D3D"/>
		<stop  offset="0.7217" style="stop-color:#292929"/>
		<stop  offset="0.9245" style="stop-color:#0D0D0D"/>
		<stop  offset="1" style="stop-color:#000000"/>
	</linearGradient>
	<path id="path8153" opacity="0.25" fill="url(#path8153_1_)" enable-background="new    " d="M299.492,581.307
		c-155.079,0-280.793-125.729-280.793-280.809c0-155.086,125.715-280.814,280.793-280.814c155.08,0,280.818,125.729,280.818,280.814
		C580.311,455.577,454.572,581.307,299.492,581.307L299.492,581.307z M299.505,0.5C134.087,0.5-0.5,135.083-0.5,300.502
		c0,165.42,134.587,299.998,300.005,299.998c165.419,0,299.995-134.578,299.995-299.998c0-165.394-134.598-299.977-300.016-299.977
		L299.505,0.5z"/>
	
		<linearGradient id="path8166_1_" gradientUnits="userSpaceOnUse" x1="291.1372" y1="-247.8237" x2="317.0865" y2="-101.8862" gradientTransform="matrix(5.0776 0 0 5.0776 -1239.8693 1215.33)">
		<stop  offset="0.1152" style="stop-color:#4D4D4D"/>
		<stop  offset="0.3159" style="stop-color:#494949"/>
		<stop  offset="0.5184" style="stop-color:#3D3D3D"/>
		<stop  offset="0.7217" style="stop-color:#292929"/>
		<stop  offset="0.9245" style="stop-color:#0D0D0D"/>
		<stop  offset="1" style="stop-color:#000000"/>
	</linearGradient>
	<path id="path8166" opacity="0.63" fill="url(#path8166_1_)" enable-background="new    " d="M299.487,581.268
		c-155.058,0-280.749-125.717-280.749-280.77c0-155.071,125.698-280.781,280.749-280.781c155.06,0,280.779,125.71,280.779,280.781
		C580.266,455.551,454.547,581.268,299.487,581.268z M299.5,7.71C137.921,7.71,6.689,138.937,6.689,300.522
		c0,161.57,131.23,292.797,292.811,292.797c161.569,0,292.795-131.227,292.795-292.797C592.295,138.941,461.069,7.71,299.5,7.71z"/>
	
		<linearGradient id="path8179_1_" gradientUnits="userSpaceOnUse" x1="291.4331" y1="-246.1621" x2="316.7452" y2="-103.8074" gradientTransform="matrix(5.0776 0 0 5.0776 -1239.8693 1215.33)">
		<stop  offset="0.1152" style="stop-color:#4D4D4D"/>
		<stop  offset="0.3159" style="stop-color:#494949"/>
		<stop  offset="0.5184" style="stop-color:#3D3D3D"/>
		<stop  offset="0.7217" style="stop-color:#292929"/>
		<stop  offset="0.9245" style="stop-color:#0D0D0D"/>
		<stop  offset="1" style="stop-color:#000000"/>
	</linearGradient>
	<path id="path8179" fill="url(#path8179_1_)" d="M299.487,581.807c-155.355,0-281.294-125.959-281.294-281.309
		c0-155.369,125.938-281.315,281.294-281.315c155.356,0,281.318,125.952,281.318,281.315
		C580.806,455.848,454.844,581.807,299.487,581.807z M299.489,14.869C141.76,14.869,13.885,142.74,13.885,300.48
		c0,157.732,127.875,285.604,285.604,285.604c157.73,0,285.605-127.87,285.605-285.604
		C585.095,142.74,457.226,14.869,299.489,14.869z"/>
	
		<radialGradient id="path8200_1_" cx="303.1797" cy="-180.2051" r="58.1188" gradientTransform="matrix(5.0776 0 0 5.0776 -1239.8693 1215.33)" gradientUnits="userSpaceOnUse">
		<stop  offset="0" style="stop-color:#FFFFFF;stop-opacity:0"/>
		<stop  offset="0.8894" style="stop-color:#FFFFFF;stop-opacity:0"/>
		<stop  offset="0.9117" style="stop-color:#FCFCFC;stop-opacity:0.2023"/>
		<stop  offset="0.9297" style="stop-color:#F2F2F2;stop-opacity:0.3648"/>
		<stop  offset="0.9462" style="stop-color:#E1E1E1;stop-opacity:0.5135"/>
		<stop  offset="0.9617" style="stop-color:#C9C9C9;stop-opacity:0.654"/>
		<stop  offset="0.9766" style="stop-color:#AAAAAA;stop-opacity:0.7887"/>
		<stop  offset="0.9908" style="stop-color:#858585;stop-opacity:0.9173"/>
		<stop  offset="1" style="stop-color:#696969"/>
	</radialGradient>
	<path id="path8200" fill="url(#path8200_1_)" d="M299.551,19.117c-155.304,0-281.203,125.904-281.203,281.22
		c0,155.304,125.899,281.21,281.203,281.21c155.324,0,281.223-125.904,281.223-281.21c0-155.335-125.919-281.24-281.243-281.24
		L299.551,19.117z M299.551,538.154c-131.343,0-237.814-106.49-237.814-237.827c0-131.354,106.473-237.832,237.814-237.832
		s237.835,106.482,237.835,237.832C537.385,431.663,430.893,538.154,299.551,538.154z"/>
	<path id="path8202" opacity="0.5" fill="#FFFFFF" enable-background="new    " d="M299.489,62.676
		c-131.343,0-237.813,106.483-237.813,237.831c0,131.339,106.472,237.827,237.813,237.827s237.835-106.488,237.835-237.827
		C537.324,169.153,430.832,62.676,299.489,62.676L299.489,62.676z M299.489,532.28c-128.001,0-231.771-103.771-231.771-231.773
		c0-128.017,103.776-231.784,231.771-231.784c128.013,0,231.782,103.772,231.782,231.784
		C531.271,428.515,427.502,532.28,299.489,532.28z"/>
	
		<radialGradient id="path8215_1_" cx="635.7324" cy="53.7324" r="252.1544" gradientTransform="matrix(0.9932 0 0 -0.9937 -331.8502 353.716)" gradientUnits="userSpaceOnUse">
		<stop  offset="0.0121" style="stop-color:#FFFFFF;stop-opacity:0"/>
		<stop  offset="0.8922" style="stop-color:#FFFFFF;stop-opacity:0"/>
		<stop  offset="0.9343" style="stop-color:#FDFDFD;stop-opacity:0.3905"/>
		<stop  offset="0.9545" style="stop-color:#F5F5F5;stop-opacity:0.5785"/>
		<stop  offset="0.9701" style="stop-color:#E8E8E8;stop-opacity:0.7231"/>
		<stop  offset="0.9833" style="stop-color:#D6D6D6;stop-opacity:0.8456"/>
		<stop  offset="0.9949" style="stop-color:#BEBEBE;stop-opacity:0.953"/>
		<stop  offset="1" style="stop-color:#B1B1B1"/>
	</radialGradient>
	<path id="path8215" fill="url(#path8215_1_)" d="M299.555,68.362c-128.04,0-231.838,103.852-231.838,231.965
		c0,128.104,103.798,231.954,231.838,231.954c128.05,0,231.848-103.85,231.848-231.954
		C531.402,172.213,427.604,68.362,299.555,68.362z M299.555,516.452c-119.3,0-216.017-96.766-216.017-216.126
		c0-119.369,96.717-216.136,216.017-216.136c119.311,0,216.026,96.768,216.026,216.136
		C515.582,419.688,418.865,516.452,299.555,516.452z"/>
	
		<radialGradient id="path8233_1_" cx="635.7646" cy="53.7734" r="217.5" gradientTransform="matrix(1 0 0 -1 -336.2695 354.2754)" gradientUnits="userSpaceOnUse">
		<stop  offset="0" style="stop-color:#FFFFFF"/>
		<stop  offset="0.5462" style="stop-color:#FDFDFD"/>
		<stop  offset="0.743" style="stop-color:#F7F6F6"/>
		<stop  offset="0.8827" style="stop-color:#ECEBEB"/>
		<stop  offset="0.9954" style="stop-color:#DCDADA"/>
		<stop  offset="1" style="stop-color:#DBD9D9"/>
	</radialGradient>
	<path id="path8233" opacity="0.5" fill="url(#path8233_1_)" enable-background="new    " d="M299.489,83.001
		c-120.115,0-217.493,97.38-217.493,217.506c0,120.116,97.378,217.496,217.493,217.496c120.126,0,217.504-97.38,217.504-217.496
		C516.993,180.381,419.615,83.001,299.489,83.001z M299.489,514.713c-118.293,0-214.203-95.901-214.203-214.206
		c0-118.309,95.91-214.215,214.203-214.215c118.313,0,214.214,95.906,214.214,214.215
		C513.703,418.812,417.803,514.713,299.489,514.713L299.489,514.713z"/>
	<path id="bgColor00" fill="#EDEBEB" d="M298.495,514.71c-118.293,0-214.204-95.902-214.204-214.207
		c0-118.309,95.911-214.214,214.204-214.214c118.313,0,214.214,95.905,214.214,214.214
		C512.709,418.808,416.809,514.71,298.495,514.71L298.495,514.71L298.495,514.71z"/>
</g>
</svg>
