<?xml version="1.0" encoding="UTF-8" standalone="no"?>
<!-- Created with Inkscape (http://www.inkscape.org/) -->

<svg
   xmlns:svg="http://www.w3.org/2000/svg"
   xmlns="http://www.w3.org/2000/svg"
   version="1.1"
   width="119.46"
   height="119.45"
   viewBox="0 0 119.46 119.45"
   id="Livello_1"
   xml:space="preserve"><defs
   id="defs94" />
<g
   transform="scale(1.4048034,1.4048153)"
   id="g8693">
	<g
   id="g8140">
		
			<linearGradient
   x1="270.0838"
   y1="-81.425102"
   x2="296.66861"
   y2="-230.9399"
   id="path8153_1_"
   gradientUnits="userSpaceOnUse"
   gradientTransform="matrix(1.0109,0,0,-1.0109,-239.3701,-89.6757)">
			<stop
   id="stop6"
   style="stop-color:#4d4d4d;stop-opacity:1"
   offset="0" />
			<stop
   id="stop8"
   style="stop-color:#474747;stop-opacity:1"
   offset="0.20469999" />
			<stop
   id="stop10"
   style="stop-color:#383838;stop-opacity:1"
   offset="0.45680001" />
			<stop
   id="stop12"
   style="stop-color:#1f1f1f;stop-opacity:1"
   offset="0.7324" />
			<stop
   id="stop14"
   style="stop-color:#000000;stop-opacity:1"
   offset="1" />
		</linearGradient>
		<path
   d="M 42.518,76.218 C 23.905,76.218 8.816,61.128 8.816,42.515 8.815,23.9 23.904,8.81 42.518,8.81 c 18.613,0 33.705,15.09 33.705,33.705 0,18.613 -15.092,33.703 -33.705,33.703 z M 42.519,0 C 19.077,0 0.003,19.073 0.003,42.515 c 0,23.442 19.073,42.514 42.516,42.514 23.443,0 42.514,-19.072 42.514,-42.514 C 85.033,19.076 65.959,0.004 42.516,0.004 L 42.519,0 z"
   id="path8153"
   style="opacity:0.25;fill:url(#path8153_1_)" />
		
			<linearGradient
   x1="270.29239"
   y1="-82.606201"
   x2="296.2413"
   y2="-228.5419"
   id="path8166_1_"
   gradientUnits="userSpaceOnUse"
   gradientTransform="matrix(1.0109,0,0,-1.0109,-239.3701,-89.6757)">
			<stop
   id="stop18"
   style="stop-color:#4d4d4d;stop-opacity:1"
   offset="0" />
			<stop
   id="stop20"
   style="stop-color:#474747;stop-opacity:1"
   offset="0.20469999" />
			<stop
   id="stop22"
   style="stop-color:#383838;stop-opacity:1"
   offset="0.45680001" />
			<stop
   id="stop24"
   style="stop-color:#1f1f1f;stop-opacity:1"
   offset="0.7324" />
			<stop
   id="stop26"
   style="stop-color:#000000;stop-opacity:1"
   offset="1" />
		</linearGradient>
		<path
   d="M 42.517,76.218 C 23.903,76.218 8.815,61.127 8.815,42.515 8.815,23.9 23.904,8.81 42.517,8.81 c 18.614,0 33.706,15.09 33.706,33.705 0,18.612 -15.092,33.703 -33.706,33.703 z M 42.518,1.022 c -22.899,0 -41.496,18.597 -41.496,41.496 0,22.897 18.598,41.494 41.496,41.494 22.897,0 41.494,-18.597 41.494,-41.494 0,-22.899 -18.596,-41.496 -41.494,-41.496 z"
   id="path8166"
   style="opacity:0.625;fill:url(#path8166_1_)" />
		
			<linearGradient
   x1="270.50369"
   y1="-83.789299"
   x2="295.81549"
   y2="-226.14281"
   id="path8179_1_"
   gradientUnits="userSpaceOnUse"
   gradientTransform="matrix(1.0109,0,0,-1.0109,-239.3701,-89.6757)">
			<stop
   id="stop30"
   style="stop-color:#4d4d4d;stop-opacity:1"
   offset="0" />
			<stop
   id="stop32"
   style="stop-color:#474747;stop-opacity:1"
   offset="0.20469999" />
			<stop
   id="stop34"
   style="stop-color:#383838;stop-opacity:1"
   offset="0.45680001" />
			<stop
   id="stop36"
   style="stop-color:#1f1f1f;stop-opacity:1"
   offset="0.7324" />
			<stop
   id="stop38"
   style="stop-color:#000000;stop-opacity:1"
   offset="1" />
		</linearGradient>
		<path
   d="M 42.517,76.218 C 23.903,76.218 8.815,61.127 8.815,42.515 8.815,23.9 23.904,8.81 42.517,8.81 c 18.613,0 33.706,15.09 33.706,33.704 0,18.613 -15.092,33.704 -33.706,33.704 z m 0,-74.182 c -22.353,0 -40.475,18.121 -40.475,40.476 0,22.353 18.122,40.474 40.475,40.474 22.353,0 40.475,-18.121 40.475,-40.474 0,-22.354 -18.121,-40.476 -40.475,-40.476 z"
   id="path8179"
   style="fill:url(#path8179_1_)" />
	</g>
	
		<linearGradient
   x1="278.85669"
   y1="-88.419701"
   x2="278.85669"
   y2="-211.08051"
   id="path8200_1_"
   gradientUnits="userSpaceOnUse"
   gradientTransform="matrix(1.0109,0,0,-1.0109,-239.3701,-89.6757)">
		<stop
   id="stop42"
   style="stop-color:#696969;stop-opacity:1"
   offset="0" />
		<stop
   id="stop44"
   style="stop-color:#6e6e6e;stop-opacity:1"
   offset="0.1198" />
		<stop
   id="stop46"
   style="stop-color:#7a7a7a;stop-opacity:1"
   offset="0.2472" />
		<stop
   id="stop48"
   style="stop-color:#ffffff;stop-opacity:1"
   offset="0.47749999" />
		<stop
   id="stop50"
   style="stop-color:#ededed;stop-opacity:1"
   offset="0.57300001" />
		<stop
   id="stop52"
   style="stop-color:#383838;stop-opacity:1"
   offset="0.6067" />
		<stop
   id="stop54"
   style="stop-color:#141414;stop-opacity:1"
   offset="0.64609998" />
		<stop
   id="stop56"
   style="stop-color:#828282;stop-opacity:1"
   offset="0.73030001" />
		<stop
   id="stop58"
   style="stop-color:#000000;stop-opacity:1"
   offset="0.8933" />
	</linearGradient>
	<path
   d="m 42.517,2.662 c -22.009,0 -39.851,17.843 -39.851,39.853 0,22.009 17.842,39.852 39.851,39.852 22.012,0 39.854,-17.843 39.854,-39.852 0,-22.013 -17.845,-39.856 -39.856,-39.856 l 0.002,0.003 z m 0,73.556 C 23.903,76.218 8.815,61.127 8.815,42.515 8.815,23.9 23.904,8.81 42.517,8.81 c 18.613,0 33.706,15.09 33.706,33.704 0,18.613 -15.092,33.704 -33.706,33.704 z"
   id="path8200"
   style="fill:url(#path8200_1_)" />
	<path
   d="m 42.517,8.811 c -18.614,0 -33.702,15.09 -33.702,33.704 0,18.612 15.089,33.704 33.702,33.704 18.613,0 33.706,-15.092 33.706,-33.704 0,-18.614 -15.092,-33.704 -33.706,-33.704 z m 0,66.551 c -18.14,0 -32.846,-14.707 -32.846,-32.846 0,-18.142 14.707,-32.847 32.846,-32.847 18.141,0 32.848,14.706 32.848,32.847 0,18.141 -14.707,32.846 -32.848,32.846 z"
   id="path8202"
   style="fill:#ffffff" />
	
		<linearGradient
   x1="294.23019"
   y1="-99.193199"
   x2="250.3927"
   y2="-189.2372"
   id="path8215_1_"
   gradientUnits="userSpaceOnUse"
   gradientTransform="matrix(1.0109,0,0,-1.0109,-239.3701,-89.6757)">
		<stop
   id="stop63"
   style="stop-color:#666666;stop-opacity:1"
   offset="0.0056" />
		<stop
   id="stop65"
   style="stop-color:#d1d1d1;stop-opacity:1"
   offset="0.18539999" />
		<stop
   id="stop67"
   style="stop-color:#e3e3e3;stop-opacity:1"
   offset="0.24160001" />
		<stop
   id="stop69"
   style="stop-color:#ffffff;stop-opacity:1"
   offset="0.43259999" />
		<stop
   id="stop71"
   style="stop-color:#1a1a1a;stop-opacity:1"
   offset="0.80339998" />
	</linearGradient>
	<path
   d="m 42.517,9.434 c -18.269,0 -33.08,14.811 -33.08,33.081 0,18.269 14.81,33.08 33.08,33.08 18.271,0 33.081,-14.811 33.081,-33.08 0,-18.27 -14.81,-33.081 -33.081,-33.081 z m 0,63.904 c -17.022,0 -30.823,-13.799 -30.823,-30.822 0,-17.024 13.8,-30.824 30.823,-30.824 17.024,0 30.823,13.8 30.823,30.824 0,17.022 -13.799,30.822 -30.823,30.822 z"
   id="path8215"
   style="fill:url(#path8215_1_)" />
	
		<linearGradient
   x1="278.9881"
   y1="-132.756"
   x2="278.9881"
   y2="-84.272003"
   id="path8222_1_"
   gradientUnits="userSpaceOnUse"
   gradientTransform="matrix(1.0109,0,0,-1.0109,-239.3701,-89.6757)">
		<stop
   id="stop75"
   style="stop-color:#525252;stop-opacity:1"
   offset="0.42699999" />
		<stop
   id="stop77"
   style="stop-color:#0d0d0d;stop-opacity:1"
   offset="0.77530003" />
	</linearGradient>
	<path
   d="m 11.589,35.318 c 0.975,0.163 0.463,3.096 0.887,1.056 2.915,-13.993 15.317,-24.505 30.175,-24.505 15.878,0 28.952,12.006 30.64,27.434 0.121,1.113 -0.243,-1.913 0.826,-2.139 1.67,-0.352 1.616,6.438 1.616,5.529 0,-18.271 -14.811,-33.08 -33.082,-33.08 -18.271,0 -33.081,14.81 -33.081,33.081 0,1.403 0.492,-7.63 2.019,-7.376 l 0,0 z"
   id="path8222"
   style="fill:url(#path8222_1_)" />
	
		<linearGradient
   x1="248.3649"
   y1="-130.76849"
   x2="334.03391"
   y2="-130.76849"
   id="path8233_1_"
   gradientUnits="userSpaceOnUse"
   gradientTransform="matrix(1.0109,0,0,-1.0109,-239.3701,-89.6757)">
		<stop
   id="stop81"
   style="stop-color:#666666;stop-opacity:1"
   offset="0.0056" />
		<stop
   id="stop83"
   style="stop-color:#d1d1d1;stop-opacity:1"
   offset="0.30340001" />
		<stop
   id="stop85"
   style="stop-color:#ffffff;stop-opacity:1"
   offset="0.46630001" />
		<stop
   id="stop87"
   style="stop-color:#1a1a1a;stop-opacity:1"
   offset="0.80339998" />
	</linearGradient>
	<path
   d="m 42.517,11.692 c -17.022,0 -30.823,13.8 -30.823,30.824 0,17.023 13.8,30.822 30.823,30.822 17.024,0 30.823,-13.799 30.823,-30.822 0,-17.024 -13.799,-30.824 -30.823,-30.824 z m 0,61.18 c -16.764,0 -30.356,-13.591 -30.356,-30.356 0,-16.766 13.592,-30.358 30.356,-30.358 16.767,0 30.358,13.592 30.358,30.358 0,16.765 -13.591,30.356 -30.358,30.356 z"
   id="path8233"
   style="opacity:0.54000005;fill:url(#path8233_1_)" />
</g>
<path
   d="m 59.727,102.368 c -23.55,0 -42.645,-19.094 -42.645,-42.646 0,-23.554 19.094,-42.647 42.645,-42.647 23.555,0 42.646,19.094 42.646,42.647 10e-4,23.552 -19.091,42.646 -42.646,42.646 z"
   id="bgColor00"
   style="fill:#7f7c7c" />
</svg>