<?xml version="1.0" encoding="UTF-8" standalone="no"?>
<!-- Created with Inkscape (http://www.inkscape.org/) -->

<svg
   xmlns:svg="http://www.w3.org/2000/svg"
   xmlns="http://www.w3.org/2000/svg"
   version="1.1"
   width="600"
   height="600"
   viewBox="0 0 600 600"
   id="Livello_1"
   xml:space="preserve"><defs
   id="defs94" />
<g
   transform="scale(1.4047915,1.4048272)"
   id="g6970">
	<g
   id="g6972">
		
			<linearGradient
   x1="44.735699"
   y1="417.06299"
   x2="40.2356"
   y2="286.233"
   id="path6985_1_"
   gradientUnits="userSpaceOnUse"
   gradientTransform="matrix(5.0776,0,0,-5.0777,-5.724,2102.5007)">
			<stop
   id="stop6"
   style="stop-color:#4d4d4d;stop-opacity:1"
   offset="0" />
			<stop
   id="stop8"
   style="stop-color:#474747;stop-opacity:1"
   offset="0.20469999" />
			<stop
   id="stop10"
   style="stop-color:#383838;stop-opacity:1"
   offset="0.45680001" />
			<stop
   id="stop12"
   style="stop-color:#1f1f1f;stop-opacity:1"
   offset="0.7324" />
			<stop
   id="stop14"
   style="stop-color:#000000;stop-opacity:1"
   offset="1" />
		</linearGradient>
		<path
   d="m 382.844,329.982 c 0,29.147 -23.603,52.862 -52.616,52.862 H 96.878 c -29.013,0 -52.623,-23.715 -52.623,-52.862 V 97.124 c 0,-29.15 23.606,-52.868 52.623,-52.868 h 233.353 c 29.009,0 52.616,23.718 52.616,52.868 v 232.858 h -0.003 z M 330.232,0 H 96.882 C 43.46,0 0,43.569 0,97.124 v 232.858 c 0,53.549 43.46,97.117 96.882,97.117 h 233.353 c 53.414,0 96.875,-43.568 96.875,-97.117 V 97.139 C 427.11,43.583 383.628,0.015 330.221,0.015 L 330.232,0 z"
   id="path6985"
   style="opacity:0.25;fill:url(#path6985_1_)" />
		
			<linearGradient
   x1="43.9352"
   y1="415.63721"
   x2="41.794201"
   y2="291.07129"
   id="path6998_1_"
   gradientUnits="userSpaceOnUse"
   gradientTransform="matrix(5.0776,0,0,-5.0777,-5.724,2102.5007)">
			<stop
   id="stop18"
   style="stop-color:#4d4d4d;stop-opacity:1"
   offset="0" />
			<stop
   id="stop20"
   style="stop-color:#474747;stop-opacity:1"
   offset="0.20469999" />
			<stop
   id="stop22"
   style="stop-color:#383838;stop-opacity:1"
   offset="0.45680001" />
			<stop
   id="stop24"
   style="stop-color:#1f1f1f;stop-opacity:1"
   offset="0.7324" />
			<stop
   id="stop26"
   style="stop-color:#000000;stop-opacity:1"
   offset="1" />
		</linearGradient>
		<path
   d="m 382.844,329.982 c 0,29.147 -23.603,52.862 -52.616,52.862 H 96.878 c -29.013,0 -52.623,-23.715 -52.623,-52.862 V 97.124 c 0,-29.15 23.606,-52.868 52.623,-52.868 h 233.353 c 29.009,0 52.616,23.718 52.616,52.868 v 232.858 h -0.003 z M 330.232,5.122 H 96.882 C 46.287,5.122 5.125,46.395 5.125,97.124 v 232.858 c 0,50.726 41.165,91.995 91.757,91.995 h 233.353 c 50.591,0 91.749,-41.27 91.749,-91.995 V 97.113 c 0,-50.729 -41.168,-92.002 -91.756,-92.002 l 0.004,0.011 z"
   id="path6998"
   style="opacity:0.625;fill:url(#path6998_1_)" />
		
			<linearGradient
   x1="43.185799"
   y1="414.18851"
   x2="43.185799"
   y2="295.81769"
   id="path7011_1_"
   gradientUnits="userSpaceOnUse"
   gradientTransform="matrix(5.0776,0,0,-5.0777,-5.724,2102.5007)">
			<stop
   id="stop30"
   style="stop-color:#4d4d4d;stop-opacity:1"
   offset="0" />
			<stop
   id="stop32"
   style="stop-color:#474747;stop-opacity:1"
   offset="0.20469999" />
			<stop
   id="stop34"
   style="stop-color:#383838;stop-opacity:1"
   offset="0.45680001" />
			<stop
   id="stop36"
   style="stop-color:#1f1f1f;stop-opacity:1"
   offset="0.7324" />
			<stop
   id="stop38"
   style="stop-color:#000000;stop-opacity:1"
   offset="1" />
		</linearGradient>
		<path
   d="m 382.844,329.982 c 0,29.147 -23.603,52.862 -52.616,52.862 H 96.878 c -29.013,0 -52.623,-23.715 -52.623,-52.862 V 97.124 c 0,-29.15 23.606,-52.868 52.623,-52.868 h 233.353 c 29.009,0 52.616,23.718 52.616,52.868 v 232.858 h -0.003 z M 330.232,10.243 H 96.882 c -47.769,0 -86.635,38.975 -86.635,86.881 v 232.858 c 0,47.903 38.866,86.87 86.635,86.87 h 233.353 c 47.765,0 86.628,-38.967 86.628,-86.87 V 97.12 c 0,-47.906 -38.856,-86.881 -86.625,-86.881 l -0.006,0.004 z"
   id="path7011"
   style="fill:url(#path7011_1_)" />
	</g>
	
		<linearGradient
   x1="43.185398"
   y1="414.01471"
   x2="43.185398"
   y2="294.89841"
   id="path7032_1_"
   gradientUnits="userSpaceOnUse"
   gradientTransform="matrix(5.0776,0,0,-5.0777,-5.724,2102.5007)">
		<stop
   id="stop42"
   style="stop-color:#696969;stop-opacity:1"
   offset="0" />
		<stop
   id="stop44"
   style="stop-color:#6e6e6e;stop-opacity:1"
   offset="0.1198" />
		<stop
   id="stop46"
   style="stop-color:#7a7a7a;stop-opacity:1"
   offset="0.2472" />
		<stop
   id="stop48"
   style="stop-color:#ffffff;stop-opacity:1"
   offset="0.47749999" />
		<stop
   id="stop50"
   style="stop-color:#ededed;stop-opacity:1"
   offset="0.57300001" />
		<stop
   id="stop52"
   style="stop-color:#383838;stop-opacity:1"
   offset="0.6067" />
		<stop
   id="stop54"
   style="stop-color:#141414;stop-opacity:1"
   offset="0.64609998" />
		<stop
   id="stop56"
   style="stop-color:#828282;stop-opacity:1"
   offset="0.73030001" />
		<stop
   id="stop58"
   style="stop-color:#000000;stop-opacity:1"
   offset="0.8933" />
	</linearGradient>
	<path
   d="M 330.232,13.37 H 96.882 c -46.048,0 -83.509,37.572 -83.509,83.754 v 232.858 c 0,46.179 37.46,83.751 83.509,83.751 h 233.353 c 46.041,0 83.501,-37.572 83.501,-83.751 V 97.11 c 0,-46.182 -37.482,-83.754 -83.516,-83.754 l 0.012,0.014 z m 52.615,316.612 c 0,29.147 -23.602,52.862 -52.616,52.862 H 96.882 c -29.013,0 -52.623,-23.715 -52.623,-52.862 V 97.124 c 0,-29.15 23.606,-52.868 52.623,-52.868 h 233.353 c 29.01,0 52.616,23.718 52.616,52.868 v 232.858 h -0.004 z"
   id="path7032"
   style="fill:url(#path7032_1_)" />
	<path
   d="M 330.232,44.256 H 96.882 c -29.013,0 -52.623,23.718 -52.623,52.868 v 232.858 c 0,29.147 23.606,52.862 52.623,52.862 h 233.353 c 29.01,0 52.616,-23.715 52.616,-52.862 V 97.124 c 0,-29.15 -23.599,-52.868 -52.612,-52.868 h -0.007 z m 49.485,285.726 c 0,27.423 -22.2,49.732 -49.482,49.732 H 96.864 c -27.289,0 -49.489,-22.309 -49.489,-49.732 V 97.139 C 47.375,69.713 69.579,47.4 96.864,47.4 h 233.353 c 27.286,0 49.482,22.312 49.482,49.739 v 232.858 l 0.018,-0.015 z"
   id="path7034"
   style="fill:#ffffff" />
	
		<linearGradient
   x1="52.1791"
   y1="412.142"
   x2="28.0951"
   y2="304.66559"
   id="path7047_1_"
   gradientUnits="userSpaceOnUse"
   gradientTransform="matrix(5.0776,0,0,-5.0777,-5.724,2102.5007)">
		<stop
   id="stop63"
   style="stop-color:#666666;stop-opacity:1"
   offset="0.0056" />
		<stop
   id="stop65"
   style="stop-color:#d1d1d1;stop-opacity:1"
   offset="0.18539999" />
		<stop
   id="stop67"
   style="stop-color:#e3e3e3;stop-opacity:1"
   offset="0.24160001" />
		<stop
   id="stop69"
   style="stop-color:#ffffff;stop-opacity:1"
   offset="0.43259999" />
		<stop
   id="stop71"
   style="stop-color:#1a1a1a;stop-opacity:1"
   offset="0.80339998" />
	</linearGradient>
	<path
   d="M 330.232,47.385 H 96.882 c -27.289,0 -49.489,22.312 -49.489,49.739 v 232.858 c 0,27.423 22.204,49.732 49.489,49.732 h 233.353 c 27.286,0 49.482,-22.309 49.482,-49.732 V 97.139 c 0,-27.426 -22.2,-49.739 -49.485,-49.739 v -0.015 z m 38.143,282.597 c 0,21.167 -17.107,38.39 -38.143,38.39 H 96.882 c -21.036,0 -38.151,-17.223 -38.151,-38.39 V 97.11 c 0,-21.17 17.111,-38.396 38.151,-38.396 h 233.353 c 21.032,0 38.144,17.226 38.144,38.396 v 232.858 l -0.004,0.014 z"
   id="path7047"
   style="fill:url(#path7047_1_)" />
	
		<linearGradient
   x1="43.185398"
   y1="422.92999"
   x2="43.185398"
   y2="302.09769"
   id="path7058_1_"
   gradientUnits="userSpaceOnUse"
   gradientTransform="matrix(5.0776,0,0,-5.0777,-5.724,2102.5007)">
		<stop
   id="stop75"
   style="stop-color:#666666;stop-opacity:1"
   offset="0.0056" />
		<stop
   id="stop77"
   style="stop-color:#d1d1d1;stop-opacity:1"
   offset="0.30340001" />
		<stop
   id="stop79"
   style="stop-color:#ffffff;stop-opacity:1"
   offset="0.46630001" />
		<stop
   id="stop81"
   style="stop-color:#1a1a1a;stop-opacity:1"
   offset="0.80339998" />
	</linearGradient>
	<path
   d="M 330.232,58.728 H 96.882 c -21.036,0 -38.151,17.226 -38.151,38.396 v 232.858 c 0,21.167 17.111,38.39 38.151,38.39 h 233.353 c 21.032,0 38.144,-17.223 38.144,-38.39 V 97.11 c 0,-21.17 -17.118,-38.396 -38.154,-38.396 l 0.007,0.014 z m 37.008,271.254 c 0,20.577 -16.569,37.254 -37.005,37.254 H 96.893 c -20.443,0 -37.012,-16.674 -37.012,-37.254 V 97.131 C 59.881,76.554 76.45,59.87 96.893,59.87 h 233.353 c 20.436,0 37.004,16.681 37.004,37.261 v 232.858 l -0.01,-0.007 z"
   id="path7058"
   style="fill:url(#path7058_1_)" />
	
		<linearGradient
   x1="43.184399"
   y1="369.9361"
   x2="43.184399"
   y2="426.91351"
   id="path7065_1_"
   gradientUnits="userSpaceOnUse"
   gradientTransform="matrix(5.0776,0,0,-5.0777,-5.724,2102.5007)">
		<stop
   id="stop85"
   style="stop-color:#525252;stop-opacity:1"
   offset="0.42699999" />
		<stop
   id="stop87"
   style="stop-color:#0d0d0d;stop-opacity:1"
   offset="0.77530003" />
	</linearGradient>
	<path
   d="m 53.042,163.041 c 2.277,-5.002 5.689,3.842 5.689,3.842 V 97.124 c 0,-21.17 17.111,-38.396 38.151,-38.396 h 233.353 c 21.032,0 38.144,17.226 38.144,38.396 v 69.759 c 0,0 2.111,-5.201 6.658,-2.02 4.547,3.181 4.684,41.779 4.684,41.779 V 97.124 c 0,-27.426 -22.199,-49.739 -49.482,-49.739 H 96.868 c -27.289,0 -49.489,22.312 -49.489,49.739 v 109.518 c -0.003,0 3.372,-38.595 5.649,-43.601 h 0.014 z"
   id="path7065"
   style="fill:url(#path7065_1_)" />
</g>
<path
   d="m 515.896,462.567 c 0,28.907 -23.275,52.336 -51.984,52.336 H 136.114 c -28.719,0 -51.994,-23.424 -51.994,-52.336 V 135.453 c 0,-28.907 23.275,-52.346 51.994,-52.346 h 327.813 c 28.708,0 51.983,23.434 51.983,52.346 v 327.125 l -0.014,-0.011 z"
   id="bgColor00"
   style="fill:#7f7c7c" />
</svg>